<?xml version="1.0" encoding="UTF-8"?>
<svg version="1.1" viewBox="0 0 2048 737" width="1388" height="500" xmlns="http://www.w3.org/2000/svg">
<path transform="translate(0)" d="m0 0h2048v737h-2048z" fill="#070608"/>
<path transform="translate(368,197)" d="m0 0h11l6 5 1 3v12l-5 6-3 1h-10z" fill="#FEFEFE"/>
<path transform="translate(254,77)" d="m0 0h7l7 2 2 3v5l-3 3 4 4v6l-4 4-13 1-1-1v-26z" fill="#FEFEFE"/>
<path transform="translate(1247,434)" d="m0 0h8l4 5 1 3v12l-3 6-4 2-7-1-4-6-1-9 3-9z" fill="#51F07B"/>
<path transform="translate(1270,434)" d="m0 0h8l4 4 1 3v14l-4 6-7 1-5-3-2-5v-13l4-6z" fill="#51F07B"/>
<path transform="translate(1017,25)" d="m0 0h6l4 2v-2l3 1v19l-3 5-4 2-7-1-4-4 2-2 5 3 6-1v-4l-1 1h-8l-4-5v-9z" fill="#FEFEFE"/>
<path transform="translate(335,138)" d="m0 0 4 1v26h-3v-2l-3 2h-8l-4-5v-10l4-5 5-1 5 2z" fill="#FEFEFE"/>
<path transform="translate(266,554)" d="m0 0h4v26l-3 1-1-2-3 2h-6l-4-4-1-2v-9l4-5 7-1 2 1z" fill="#51F07B"/>
<path transform="translate(1109,441)" d="m0 0h6l4 2v-2l3 1v19l-3 5-2 1h-8l-4-3v-3l4 2h8l2-5-4 2h-6l-4-4-1-2v-7l3-5z" fill="#51F07B"/>
<path transform="translate(740,500)" d="m0 0h7l3 1 3-1v22l-4 4h-9l-4-4v-2l5 2h7l2-5-3 2h-6l-5-5-1-7 3-5z" fill="#51F07B"/>
<path transform="translate(1063,441)" d="m0 0h6l4 2v-2h2l1 5v13l-2 6-3 2h-9l-3-3v-3l4 2h8v-4l-2 1h-6l-4-4-1-2v-7l3-5z" fill="#51F07B"/>
<path transform="translate(474,138)" d="m0 0h3v27h-3v-2l-3 2h-7l-4-4-1-2v-8l3-5 4-2 6 1 1 1z" fill="#FEFEFE"/>
<path transform="translate(943,613)" d="m0 0 4 1-1 7 4-2 7 1 3 3 1 3v8l-5 6h-6l-3-2-3 2-1-1z" fill="#51F07B"/>
<path transform="translate(668,18)" d="m0 0 2 1v8l4-2h6l4 4 1 3v7l-3 5-3 2-7-1-1-1-1 2-3-1v-26z" fill="#FEFEFE"/>
<path transform="translate(1198,553)" d="m0 0h1l1 9 4-2 6 1 4 5v9l-5 6h-6l-4-1h-3v-26z" fill="#51F07B"/>
<path transform="translate(713,493)" d="m0 0h3v9l3-2h7l4 4 1 3v7l-4 6-6 1-4-2-4 1z" fill="#51F07B"/>
<path transform="translate(980,197)" d="m0 0h3l1 18-1 9-4-1-1 1h-8l-4-5-1-6 3-8 4-2 6 1 2 1z" fill="#FEFEFE"/>
<path transform="translate(1049,138)" d="m0 0h3l1 25-1 2-4-1-1 1h-8l-4-5-1-6 2-6 3-3 5-1 4 2z" fill="#FEFEFE"/>
<path transform="translate(744,203)" d="m0 0 6 1 4 6v7l-3 6-2 1h-7l-2-1-1 7h-3v-26l4 1z" fill="#FEFEFE"/>
<path transform="translate(773,138)" d="m0 0h3v27l-4-1-1 1h-8l-4-4-1-9 3-6 6-2 5 2z" fill="#FEFEFE"/>
<path transform="translate(1026,613)" d="m0 0h3v26h-3l-10 1-4-5-1-8 3-6 3-2 7 1 2 1z" fill="#51F07B"/>
<path transform="translate(714,84)" d="m0 0 3 2 3-2 7 1 3 3 1 3v7l-3 5-2 2h-6l-4-2v7h-3v-25z" fill="#51F07B"/>
<path transform="translate(865,138)" d="m0 0h3v27l-4-1-1 1h-8l-4-5-1-7 3-7 4-2 6 1 1 1z" fill="#FEFEFE"/>
<path transform="translate(1504,144)" d="m0 0 7 2 3 7-1 8-4 4h-7l-2-1-1 7h-3v-26l4 1z" fill="#51F07B"/>
<path transform="translate(1e3 493)" d="m0 0h2v27l-4-1-4 2-5-1-3-3-2-9 3-6 2-2h7l2 1 1-7z" fill="#51F07B"/>
<path transform="translate(1118,197)" d="m0 0h3v27l-4-1-1 1h-8l-4-5-1-6 2-6 3-3 5-1 4 2z" fill="#FEFEFE"/>
<path transform="translate(1832,138)" d="m0 0h3v27l-4-1-2 1h-7l-4-5-1-8 3-6 2-1h8l1 1z" fill="#51F07B"/>
<path transform="translate(1381,25)" d="m0 0 4 2 2-2h6l5 5 1 7-3 7-3 2h-6l-2-2-1 7h-3z" fill="#51F07B"/>
<path transform="translate(967,77)" d="m0 0 3 1 1 7 2-1h6l4 4 1 2v10l-5 5h-6l-3-2-3 2z" fill="#51F07B"/>
<path transform="translate(621,500)" d="m0 0 4 2 2-2h7l4 5 1 8-3 6-4 2-6-1-1-1-1 7h-3z" fill="#51F07B"/>
<path transform="translate(175,434)" d="m0 0h2v27l-4-1-4 2-5-1-4-5-1-6 3-7 3-2h6l2 1 1-7z" fill="#51F07B"/>
<path transform="translate(1036,434)" d="m0 0 3 1 1 7 2-1h6l5 5v10l-4 5-6 1-4-2-3 1z" fill="#52F07C"/>
<path transform="translate(290,493)" d="m0 0h2v27l-4-1-4 2-5-1-4-5v-10l5-5h6l2 1 1-7z" fill="#51F07B"/>
<path transform="translate(1388,138)" d="m0 0 7 1 4 5 1 11-3 6-3 1-3-2-5 2-3-4 1-8 3-4h7v13h2v-12l-3-5h-6l-4 6-1 9 2 6 2 1h8l-1 3-6 1-5-3-3-5v-12l3-6 3-3z" fill="#51F07B"/>
<path transform="translate(604,78)" d="m0 0h7l5 5 1 4v9l-3 5-6-1-1 1h-5l-1-2v-9l3-4h8l-1 13 2-1v-13l-4-4-5 1-4 6v12l4 4h7v2l-2 1h-7l-5-5-1-3v-11l3-6z" fill="#51F07B"/>
<path transform="translate(92,204)" d="m0 0h2v2l3-2h8l4 5v9l-3 5-2 1h-6l-2-1-2 7h-2z" fill="#F561C7"/>
<path transform="translate(92,145)" d="m0 0h2v2l3-2h8l4 5v9l-3 5-2 1h-6l-2-1-2 7h-2z" fill="#F561C7"/>
<path transform="translate(92,84)" d="m0 0 2 1v2l5-3h5l5 6v9l-4 5-6 1-4-2v7h-3z" fill="#F561C7"/>
<path transform="translate(92,322)" d="m0 0h2v2l3-2h8l4 5v9l-3 5-2 1h-6l-2-1-1 6h-3z" fill="#F561C7"/>
<path transform="translate(92,25)" d="m0 0 2 1v2l5-3 6 1 4 5v9l-4 5-6 1-4-2v7h-3z" fill="#F561C7"/>
<path transform="translate(221,315)" d="m0 0h2v27h-2v-2l-4 2h-6l-4-4-1-2v-8l4-6h8l3 2-1-8z" fill="#F561C7"/>
<path transform="translate(1271,19)" d="m0 0h8l4 4 2 8-1 8-2 3-7-1-5 1-2-3 1-9 2-3h8v13h2v-12l-2-5-5-1-4 2-3 8 1 10 3 3h8v2l-2 1h-7l-5-5-2-10 3-9z" fill="#51F07B"/>
<path transform="translate(350,84)" d="m0 0h7l5 5v11l-5 5h-7l-5-5-1-8 3-6z" fill="#FEFEFE"/>
<path transform="translate(1732,203)" d="m0 0 7 1 4 4 1 8-3 6-2 2h-9l-4-5-1-8 3-5z" fill="#FEFEFE"/>
<path transform="translate(673,203)" d="m0 0 7 1 4 4 1 7-3 7-2 2h-9l-4-5-1-2 1-9 4-4z" fill="#FEFEFE"/>
<path transform="translate(1962,203)" d="m0 0 7 1 4 4 1 9-3 5-2 2h-8l-5-5-1-6 3-7z" fill="#FEFEFE"/>
<path transform="translate(972,619)" d="m0 0 8 1 3 4 1 8-3 6-3 2h-7l-5-5-1-7 3-6z" fill="#51F07B"/>
<path transform="translate(857,619)" d="m0 0 7 1 4 4 1 7-3 7-3 2h-7l-5-5-1-8 3-6z" fill="#51F07B"/>
<path transform="translate(1410,203)" d="m0 0 7 1 4 5v9l-3 5-2 1h-8l-5-6v-8l4-6z" fill="#FEFEFE"/>
<path transform="translate(1295,203)" d="m0 0 7 1 3 3 1 3v8l-5 6h-8l-4-4-1-2v-8l3-5z" fill="#FEFEFE"/>
<path transform="translate(1180,203)" d="m0 0 7 1 4 6v8l-5 6h-8l-4-4-1-2v-9l4-5z" fill="#FEFEFE"/>
<path transform="translate(812,203)" d="m0 0 6 1 4 4 1 2v7l-3 5-2 2h-8l-5-5v-10l4-5z" fill="#FEFEFE"/>
<path transform="translate(512,203)" d="m0 0 7 1 4 5v10l-5 5h-8l-4-4-1-3v-7l3-5z" fill="#FEFEFE"/>
<path transform="translate(397,203)" d="m0 0 7 1 4 5v10l-5 5h-8l-5-6v-8l3-5z" fill="#FEFEFE"/>
<path transform="translate(328,203)" d="m0 0 7 1 4 5v10l-5 5h-8l-5-6v-8l3-5z" fill="#FEFEFE"/>
<path transform="translate(512,144)" d="m0 0 7 1 4 5v10l-5 5h-8l-4-4-1-3v-7l3-5z" fill="#FEFEFE"/>
<path transform="translate(1017,500)" d="m0 0h8l4 5 1 2-1 9-6 5-7-1-4-5-1-6 3-7z" fill="#51F07B"/>
<path transform="translate(672,84)" d="m0 0h7l4 4 1 2v10l-5 5h-7l-5-5-1-8 3-6z" fill="#51F07B"/>
<path transform="translate(764,441)" d="m0 0h7l5 5 1 8-3 5-4 3-7-1-4-5-1-6 3-7z" fill="#51F07B"/>
<path transform="translate(1064,84)" d="m0 0h6l5 5 1 9-4 6-2 1h-7l-5-6v-9l4-5z" fill="#51F07B"/>
<path transform="translate(1409,25)" d="m0 0h6l5 4 1 2v9l-4 5-2 1h-6l-5-5-1-2v-7l4-6z" fill="#51F07B"/>
<path transform="translate(1340,25)" d="m0 0h6l5 4 1 2v9l-4 5-2 1h-6l-5-5-1-2v-7l4-6z" fill="#51F07B"/>
<path transform="translate(742,84)" d="m0 0h6l5 5 1 8-3 6-3 2h-6l-5-4-1-2v-9l4-5z" fill="#51F07B"/>
<path transform="translate(1526,144)" d="m0 0 7 2 3 5v8l-3 5-2 1h-8l-4-4-1-3v-7l3-5z" fill="#51F07B"/>
<path transform="translate(1457,144)" d="m0 0 7 2 3 5v9l-5 5h-8l-4-4-1-3v-7l5-6z" fill="#51F07B"/>
<path transform="translate(512,84)" d="m0 0 7 1 4 5v9l-4 5-2 1h-6l-5-5-1-8 4-7z" fill="#F561C7"/>
<path transform="translate(1496,197)" d="m0 0h12l4 2 2 4-1 6-2 3-3 1h-8v10l-4 1z" fill="#FEFEFE"/>
<path transform="translate(1083,612)" d="m0 0h7l7 2 2 3v8l-3 3-3 1h-8v11h-3v-27z" fill="#FEFEFE"/>
<path transform="translate(1819,197)" d="m0 0h12l5 5v6l-5 5h-9v11h-3z" fill="#FEFEFE"/>
<path transform="translate(812,18)" d="m0 0h4l6 18 2 10h-3l-2-5v-3l-10 1-3 7h-2l1-8 6-19z" fill="#FEFEFE"/>
<path transform="translate(260,18)" d="m0 0 4 1 7 23v4l-3-1-2-6-10-1-1 6-1 2h-3l2-10 5-16z" fill="#FEFEFE"/>
<path transform="translate(259,197)" d="m0 0h5l7 23v4h-3l-3-7h-8l-3 7h-3l2-10 5-16z" fill="#FEFEFE"/>
<path transform="translate(444,18)" d="m0 0 4 1 7 22v5l-3-1-2-6-10-1-1 6-1 2h-3l2-10 5-16z" fill="#FEFEFE"/>
<path transform="translate(604,197)" d="m0 0h5l7 22 1 5-4-1-2-6h-9l-3 7h-3l3-12z" fill="#FEFEFE"/>
<path transform="translate(679,493)" d="m0 0h3v18h3v3h-3v6h-3v-6h-14l2-5 10-14z" fill="#51F07B"/>
<path transform="translate(1617,203)" d="m0 0 6 1 3 3 1 4v9l2 1v3l-7-1-1 1h-8l-3-3v-5l4-3 8-2v-4l-6 1-2 2h-3l1-4z" fill="#FEFEFE"/>
<path transform="translate(602,25)" d="m0 0h7l4 4 1 3v11h2l-1 3-6-1-2 1h-6l-4-4 1-5 5-3 7-1-2-4-6 1-3 2-1-3z" fill="#FEFEFE"/>
<path transform="translate(487,25)" d="m0 0h7l4 4 1 4v10h2l-1 3-6-1-2 1h-6l-4-3v-5l3-3 10-2-2-4h-5l-3 3h-2l1-5z" fill="#FEFEFE"/>
<path transform="translate(834,144)" d="m0 0 7 1 3 6v11h2v3l-7-1-1 1h-8l-3-4 1-5 7-3h5l-1-4-4-1-4 3h-3l1-4z" fill="#FEFEFE"/>
<path transform="translate(1225,619)" d="m0 0h6l5 4 1 7-1 1h-13l1 5h6l3-2 4 1-5 5h-7l-5-5-1-2v-7l4-6z" fill="#FEFEFE"/>
<path transform="translate(1064,203)" d="m0 0 7 1 3 5v12l3 1-1 2-6-1-2 1h-8l-3-5 2-5 11-3-1-3-4-1-4 3h-3l2-5z" fill="#FEFEFE"/>
<path transform="translate(349,25)" d="m0 0h7l4 4 1 4v9l2 1-1 3-6-1-2 1h-6l-4-4 1-5 5-3 7-1-2-4-6 1-3 2-1-3z" fill="#FEFEFE"/>
<path transform="translate(995,144)" d="m0 0 7 1 3 5v12l3 1v2l-7-1-2 1h-8l-2-2v-7l7-3 5-1-1-3-3-1-5 3h-3l2-5z" fill="#FEFEFE"/>
<path transform="translate(420,144)" d="m0 0 6 1 3 3 1 5v8l2 4-7-1-1 1h-8l-3-3v-5l4-3 8-2v-4l-6 1-2 2h-3l1-4z" fill="#FEFEFE"/>
<path transform="translate(902,25)" d="m0 0h6l4 4 1 3v11h2l-1 3-6-1-2 1h-6l-4-4 1-5 5-3 7-1-2-4-6 1-3 2-1-3 3-3z" fill="#FEFEFE"/>
<path transform="translate(856,25)" d="m0 0h6l5 5 1 12 2 3-3 1-5-1-2 1h-6l-3-3-1-4 4-4 8-2v-4h-5l-3 3-3-1 2-4z" fill="#FEFEFE"/>
<path transform="translate(533,25)" d="m0 0h7l4 4 1 4v10h2v2h-7l-2 1h-6l-4-4 1-5 5-3 7-1-2-4-6 1-3 2-1-3z" fill="#FEFEFE"/>
<path transform="translate(719,144)" d="m0 0 6 1 3 3 1 3 1 11 1 3-7-1-1 1h-8l-3-4 1-5 7-3h5l-1-4-4-1-4 3h-3l1-4z" fill="#FEFEFE"/>
<path transform="translate(695,25)" d="m0 0h6l4 3 1 3 1 11 1 4-7-1-2 1h-6l-3-2-1-5 4-4 9-2-2-4-6 1-3 2v-4z" fill="#FEFEFE"/>
<path transform="translate(1041,25)" d="m0 0h6l5 4 1 7-1 1h-12v3 2h6l4-3h2l-1 5-4 2h-6l-5-5-1-2v-7l3-5z" fill="#FEFEFE"/>
<path transform="translate(1294,560)" d="m0 0h6l5 5 1 7-14 1 1 4h7l2-2 4 1-5 5h-7l-5-5-1-9 4-6z" fill="#51F07B"/>
<path transform="translate(1341,203)" d="m0 0 7 1 3 3 1 8h-14l2 5h6l2-2 4 1-4 5h-9l-4-5-1-2 1-9 4-4z" fill="#FEFEFE"/>
<path transform="translate(950,203)" d="m0 0 7 1 3 4 1 7h-15l3 5h6l2-2h3l-2 5-2 1h-8l-4-4-1-2v-8l3-5z" fill="#FEFEFE"/>
<path transform="translate(1178,619)" d="m0 0h6l5 5 1 12 2 3-3 1-4-2-3 2h-6l-3-3v-6l6-3 6-2-1-3h-5l-3 3-3-1 2-4z" fill="#FEFEFE"/>
<path transform="translate(970,500)" d="m0 0h8l3 3 2 14 1 3-6-1-4 2-6-1-3-3 1-5 4-3 8-1-1-4h-6l-2 2h-3l2-5z" fill="#51F07B"/>
<path transform="translate(994,25)" d="m0 0h6l5 5 1 12 2 3-3 1-5-1-2 1h-6l-3-3v-6l6-3 5-1v-4h-7l-1 3-3-1 2-4z" fill="#FEFEFE"/>
<path transform="translate(303,25)" d="m0 0h7l4 4 1 13 2 1-1 3-6-1-2 1h-6l-4-3 1-7 10-3h2l-2-4h-5l-4 3-1-4z" fill="#FEFEFE"/>
<path transform="translate(1109,619)" d="m0 0h6l5 5 1 12 2 3-3 1-5-1-2 1h-6l-3-3v-6l6-3 7-1-2-4h-5l-3 3-3-1 3-5z" fill="#FEFEFE"/>
<path transform="translate(765,560)" d="m0 0h6l5 5 1 6-1 1h-14l3 5 7-1 4-1-2 4-3 2h-7l-5-6v-8l3-5z" fill="#51F07B"/>
<path transform="translate(881,144)" d="m0 0 6 1 4 4 1 7h-15l3 5h6l2-2h3l-1 4-3 2h-8l-4-4-1-2v-8l3-5z" fill="#FEFEFE"/>
<path transform="translate(281,144)" d="m0 0 7 1 3 4v13l3 1v2l-7-1-2 1h-7l-3-3v-5l4-3 8-2-1-3-3-1-5 3-3-1 2-4z" fill="#FEFEFE"/>
<path transform="translate(1455,25)" d="m0 0h6l5 4 1 7-4 1h-10l3 5h5l2-2 4 1-5 5h-7l-5-5-1-8 3-6z" fill="#51F07B"/>
<path transform="translate(949,560)" d="m0 0h6l5 5 1 6-1 1h-14l3 5 7-1 4-1-2 4-3 2h-7l-4-4-1-3v-7l3-5z" fill="#51F07B"/>
<path transform="translate(1548,203)" d="m0 0 7 1 4 5 1 5-1 1h-14l3 5 7-1 4-1-2 4-2 2h-9l-4-5v-10l4-5z" fill="#FEFEFE"/>
<path transform="translate(1157,144)" d="m0 0 7 1 4 6v5h-14l2 5h6l3-2 3 1-5 5h-8l-4-4-1-9 3-5z" fill="#FEFEFE"/>
<path transform="translate(812,144)" d="m0 0 6 1 4 4 1 7h-15l3 5h6l2-2h3l-1 4-3 2h-8l-5-6v-8l3-5z" fill="#FEFEFE"/>
<path transform="translate(582,144)" d="m0 0 6 1 4 4 1 7h-15l3 5h6l2-2h3l-2 5-2 1h-8l-4-4-1-2v-9l4-5z" fill="#FEFEFE"/>
<path transform="translate(1225,560)" d="m0 0h6l5 5 1 6-1 1-13 1 1 4h7l2-2h3l-1 4-3 2h-7l-5-5-1-2 1-9z" fill="#51F07B"/>
<path transform="translate(650,560)" d="m0 0h6l5 5 1 6-2 1h-13l3 5 7-1 4-1-2 4-3 2h-7l-5-6v-9l4-5z" fill="#51F07B"/>
<path transform="translate(650,619)" d="m0 0h6l5 5 1 6-3 1h-12l3 5 7-1 4-1-2 4-3 2h-7l-5-6v-9l4-5z" fill="#51F07B"/>
<path transform="translate(1317,560)" d="m0 0h6l5 5 1 6-2 1h-13l2 4 7 1 2-2h3l-2 4-2 2h-7l-5-5-1-2v-7l4-6z" fill="#51F07B"/>
<path transform="translate(880,560)" d="m0 0h6l5 5 1 6-2 1h-13l3 5h6l2-2h3l-2 4-2 2h-8l-4-4-1-3v-7l4-6z" fill="#51F07B"/>
<path transform="translate(1779,144)" d="m0 0 6 2 2 2 2 14 1 3-7-1-1 1h-8l-3-4 1-5 8-3h4l-2-5-5 1-5 2 1-4z" fill="#51F07B"/>
<path transform="translate(1573,144)" d="m0 0 6 2 3 4v6h-14l2 5h7l2-2h3l-2 4-2 2-5 1-5-2-3-4-1-7 3-6 2-2z" fill="#51F07B"/>
<path transform="translate(257,500)" d="m0 0h7l4 4 1 13 2 1v2l-7-1-4 2-6-1-2-3v-5l5-3 8-1-1-5-7 2-4 1 1-4z" fill="#51F07B"/>
<path transform="translate(1731,25)" d="m0 0h6l4 4 1 10v3l2 1v2h-7l-2 1h-6l-4-4 1-5 2-2 9-2-1-4h-5l-2 2h-3l2-4z" fill="#51F07B"/>
<path transform="translate(948,441)" d="m0 0h8l4 5 1 6h-15l2 6 7-1 2-2h3l-1 4-5 3-7-1-4-6v-8z" fill="#51F07B"/>
<path transform="translate(1151,612)" d="m0 0h16v4h-13v8h13v4h-13l1 8 13 1-1 3h-16z" fill="#FEFEFE"/>
<path transform="translate(1155,441)" d="m0 0h7l4 5 1 12 2 3-7-1-4 2-6-1-2-2v-6l5-3 8-1-2-4h-6l-2 2-3-1z" fill="#51F07B"/>
<path transform="translate(672,441)" d="m0 0h7l5 5 1 6h-15l2 5 5 1 4-3h3l-2 5-4 2-7-1-4-5v-9l3-5z" fill="#51F07B"/>
<path transform="translate(879,500)" d="m0 0h8l4 5 1 6h-15l3 5 4 1 3-1 1-2h3l-1 4-5 3-7-1-4-6v-8z" fill="#51F07B"/>
<path transform="translate(304,500)" d="m0 0h7l4 4 1 7h-14l2 5 5 1 4-3 3 1-2 4-4 2-7-1-4-5-1-7 3-6z" fill="#51F07B"/>
<path transform="translate(1685,25)" d="m0 0h6l4 4 1 13 2 1v2h-7l-2 1h-6l-4-4 1-5 5-3 6-1-1-4h-5l-5 3 1-4z" fill="#51F07B"/>
<path transform="translate(1639,25)" d="m0 0 7 1 3 4 1 12 2 1v2h-8l-1 1h-6l-4-3v-5l3-3 10-2-2-4h-5l-5 3 1-5z" fill="#51F07B"/>
<path transform="translate(971,441)" d="m0 0h8l4 5 1 6h-15l2 5 5 1 4-3h3l-2 5-4 2-7-1-4-6v-8z" fill="#51F07B"/>
<path transform="translate(234,500)" d="m0 0h8l4 4 1 7-14 1 2 4 5 1 4-3h2l-1 4-5 3-6-1-4-4-1-9 4-6z" fill="#51F07B"/>
<path transform="translate(557,441)" d="m0 0h7l4 4 1 7h-14l2 5 5 1 4-3h3l-2 5-4 2-7-1-4-5v-10z" fill="#51F07B"/>
<path transform="translate(965,25)" d="m0 0 4 1 5-1 1 3h2l1-3h5l2 3v17l-3 1-1-18-3 1-1 16h-4l-1-16-3-1-1 17h-3z" fill="#FEFEFE"/>
<path transform="translate(1311,203)" d="m0 0 4 1 4-1 1 3 4-3 5 1 1 2v18h-3l-1-18-3 2-1 16h-3l-1-15-1-2h-2l-1 16-4 1v-20z" fill="#FEFEFE"/>
<path transform="translate(788,84)" d="m0 0h6l5 5 1 6-14 1 2 5h7v-2h4l-2 4-3 2h-7l-5-6v-9l4-5z" fill="#51F07B"/>
<path transform="translate(741,612)" d="m0 0h7l4 2 2 4v5l-7 6-7 5-1 2h15v4h-16l-3-1 1-6 8-7 5-3v-6l-6-1-5 5-3-1 3-6z" fill="#51F07B"/>
<path transform="translate(1265,197)" d="m0 0 4 1v11l10-1 1-11h3v27h-3v-12h-11v11l-4 1z" fill="#FEFEFE"/>
<path transform="translate(712,197)" d="m0 0h4l1 21 1 2h7l1-1 1-22h4v20l-3 5-2 2h-9l-4-4-1-4z" fill="#FEFEFE"/>
<path transform="translate(234,322)" d="m0 0h8l4 4 1 6-1 1h-14l3 5 4 1 4-3h3l-1 4-3 2h-7l-5-5-1-7 3-6z" fill="#F561C7"/>
<path transform="translate(50,322)" d="m0 0h8l4 4 1 7h-15l3 5 4 1 5-3h2l-2 4-2 2h-7l-5-5-1-8 3-5z" fill="#F561C7"/>
<path transform="translate(688,204)" d="m0 0h4l2 13 2-9 4-2 2 5 1 6 2-12 4-1-1 10-2 9-4 1-3-8-3 8h-4l-3-12z" fill="#FEFEFE"/>
<path transform="translate(1478,144)" d="m0 0 3 1v2l5-3 4 1 1 2v18l-3-1-1-16-3 1-1 16h-3l-1-18h-3l-1 17h-4v-19z" fill="#51F07B"/>
<path transform="translate(1357,25)" d="m0 0 3 1 5-1 1 3 4-3 5 1 1 2v17h-3l-1-16-3-1-1 17h-3l-1-17-3 1-1 16h-4v-19z" fill="#51F07B"/>
<path transform="translate(343,204)" d="m0 0 4 1 2 12 2-10h4l2 6 1 4 2-13h4l-2 14-2 6h-4l-3-8-2 8-5-1-3-15z" fill="#FEFEFE"/>
<path transform="translate(279,322)" d="m0 0h8l3 3 1 2v12l3 1-1 2-7-1-1 1h-7l-3-3v-5l4-3 9-1-2-5h-5l-3 3h-2l1-4z" fill="#F561C7"/>
<path transform="translate(689,84)" d="m0 0 4 1 5-1 2 2 2-2 5 1 2 6v13h-4v-17h-4l-1 17h-3l-1-16h-3l-1 16h-3z" fill="#51F07B"/>
<path transform="translate(781,560)" d="m0 0h2v2l3-2 4 1h3l5-1 2 3 1 7v10h-4v-17l-4 2-1 16-3-1-1-16-3-1-1 17-3 1z" fill="#51F07B"/>
<path transform="translate(412,204)" d="m0 0 4 1 2 12 2-10h4l2 6v5h2v-8l1-6h4l-2 13-2 7h-4l-3-8-2 8-5-1-3-15z" fill="#FEFEFE"/>
<path transform="translate(120,382)" d="m0 0h6l5 5 1 6h-15l2 5 6 1 3-2h3l-2 4-7 2-5-3-3-5 1-8z" fill="#F561C7"/>
<path transform="translate(782,138)" d="m0 0h3v12h11v-12h3l1 16v10l-4 1v-12h-11v12h-3z" fill="#FEFEFE"/>
<path transform="translate(1571,196)" d="m0 0 7 1 4 4 1 4h-4l-3-4h-6l-2 4v11l3 4h5l3-5h4l-2 6-3 3h-9l-4-4-2-5v-9l3-7z" fill="#FEFEFE"/>
<path transform="translate(259,137)" d="m0 0 7 1 4 4v4h-3l-3-4h-6l-2 4v11l2 4h6l3-5h4l-2 6-3 3-6 1-6-3-3-7v-9l3-7z" fill="#FEFEFE"/>
<path transform="translate(489,137)" d="m0 0 7 1 4 4 1 4h-4l-3-4h-6l-2 4v11l3 4h5l4-5h3l-1 5-4 4-6 1-6-3-3-8v-7l3-8z" fill="#FEFEFE"/>
<path transform="translate(1264,560)" d="m0 0h3l2 11 1 1 3-9h3l2 9h1l2-11 3-1 1 2-4 18h-4l-2-6v-4h-2l-1 10-3 1-2-1-3-14z" fill="#51F07B"/>
<path transform="translate(973,137)" d="m0 0 7 1 4 5v3l-4-1-2-3h-6l-2 3v13l2 3h6l3-5h3l-1 6-4 3-5 1-6-3-3-6v-11l3-6z" fill="#FEFEFE"/>
<path transform="translate(397,137)" d="m0 0 7 1 4 5v3l-4-1-2-3h-6l-2 3v12l2 4h6l3-5h4l-2 6-3 3-5 1-7-3-3-7v-9l3-7z" fill="#FEFEFE"/>
<path transform="translate(1042,196)" d="m0 0 7 1 4 5v3l-4-1-2-3h-6l-2 3v13l2 3h6l3-5h3l-1 6-4 3h-8l-5-5-1-3v-11l3-6z" fill="#FEFEFE"/>
<path transform="translate(737,18)" d="m0 0 3 1 1 15 7-8 5-1-2 4-4 4 2 5 4 5v3l-4-2-4-5v-2l-4 2-2 7-3-1v-26z" fill="#FEFEFE"/>
<path transform="translate(780,500)" d="m0 0h3l3 13 2-9 4-1 3 10 3-13h3l-2 14-2 6h-4l-2-8h-1l-2 8h-4l-3-12z" fill="#51F07B"/>
<path transform="translate(1033,500)" d="m0 0h4l2 12 3-9h4l2 10 3-13h3l-1 11-2 9-5-1-2-9-2 9-5 1z" fill="#51F07B"/>
<path transform="translate(67,145)" d="m0 0h9 4 5l2 3v17h-3l-1-17h-3l-1 16-3 1-1-18-4 2-1 16-3-1z" fill="#F561C7"/>
<path transform="translate(697,137)" d="m0 0 6 1 4 4 1 4h-4l-2-4h-7l-2 6v7l2 5 1 1h6l3-5h3l-1 5-4 4-5 1-5-2-4-6v-13l3-5z" fill="#FEFEFE"/>
<path transform="translate(903,196)" d="m0 0 7 1 4 4 1 4-4-1-2-3h-7l-2 6v7l2 5 1 1h7l2-5h3l-1 5-4 4h-9l-4-4-1-3v-13l3-5z" fill="#FEFEFE"/>
<path transform="translate(73,25)" d="m0 0 4 1v2l4-3 4 1 2 2v17h-3l-1-16h-3l-1 15-3 1-1-17h-4l-1 17h-3v-19z" fill="#F561C7"/>
<path transform="translate(208,493)" d="m0 0 3 1v7l2-1h7l3 3 1 6v10l-4 1-1-16-5-1-2 2-1 15-4-1v-25z" fill="#51F07B"/>
<path transform="translate(372,200)" d="m0 0 7 1 3 3 1 9-2 5-5 3h-4z" fill="#070608"/>
<path transform="translate(67,204)" d="m0 0h9 4 5l2 3v17h-3l-1-17h-3l-1 14-1 3h-2l-1-18-4 2-1 16-3-1z" fill="#F561C7"/>
<path transform="translate(944,18)" d="m0 0h16v4h-7v20l7 1v3h-16v-4h6v-20h-6z" fill="#FEFEFE"/>
<path transform="translate(1357,197)" d="m0 0h17v3h-6v21h6v3h-16v-3h6v-21h-6z" fill="#FEFEFE"/>
<path transform="translate(368,434)" d="m0 0 4 1 6 12 1 7h2v2h2l-1-4v-17h3v15l-1 11-4-1-6-14-1-6h-2l-1 21-2-1z" fill="#F561C7"/>
<path transform="translate(528,84)" d="m0 0 3 1 5-1 3 2 2-2 5 1 1 1v18h-2l-1-13-1-4-3 1-1 16h-3l-1-16-4-1v17h-3z" fill="#F561C7"/>
<path transform="translate(576,18)" d="m0 0h16v4h-13l1 8 12 1v3h-13v12h-3z" fill="#FEFEFE"/>
<path transform="translate(369,84)" d="m0 0h2v2l4-2h6l3 3 1 4v13h-4l-1-17-7 2-1 15h-4v-19z" fill="#FEFEFE"/>
<path transform="translate(1127,197)" d="m0 0h17v3l-6 1v19l6 1v3h-17v-3h7v-21h-7z" fill="#FEFEFE"/>
<path transform="translate(1435,203)" d="m0 0 6 1 2 2 1 4v14l-4-1-1-15-5-1h-2l-1 17-4-1v-19l4 1z" fill="#FEFEFE"/>
<path transform="translate(1201,619)" d="m0 0h7l4 3v4l-4-2-1-1h-5v4l9 3 2 2v5l-4 3h-7l-4-2-1-5 4 1v2h7l1-3-10-3-2-3 1-6z" fill="#FEFEFE"/>
<path transform="translate(445,203)" d="m0 0 6 1 3 6v13l-4 1-1-16-5-1h-2l-1 16h-4v-18h4z" fill="#FEFEFE"/>
<path transform="translate(1750,203)" d="m0 0 4 2 3-2 6 1 3 5v15l-4-1-1-15-5-1-2 2-1 15h-3l-1-2v-12z" fill="#FEFEFE"/>
<path transform="translate(1205,203)" d="m0 0 6 1 2 3 1 6v10l-4 1-1-16-5-1-2 1-1 15-4 1v-20l4 1z" fill="#FEFEFE"/>
<path transform="translate(1894,203)" d="m0 0 6 1 3 3v3l-4-1v-2l-7 1v4l8 1 4 3v5l-3 3h-9l-4-3v-4l4 2 1 1 7 1-1-4-9-3-2-2 1-7z" fill="#FEFEFE"/>
<path transform="translate(1589,197)" d="m0 0h3l1 8 3-2 6 1 3 4v16h-3l-1-17h-6l-2 3-1 14h-3z" fill="#FEFEFE"/>
<path transform="translate(1128,138)" d="m0 0h8l3 3v21h6l1 3h-19v-3h8v-21h-6z" fill="#FEFEFE"/>
<path transform="translate(1910,197)" d="m0 0h17v3h-7l1 20 6 1v3h-17v-3h7v-21h-7z" fill="#FEFEFE"/>
<path transform="translate(1680,197)" d="m0 0h17v3h-7v21h7v3h-17v-3l6-1 1-20h-7z" fill="#FEFEFE"/>
<path transform="translate(759,197)" d="m0 0h17v3h-7l1 20 6 1v3h-17v-3h7v-21h-7z" fill="#FEFEFE"/>
<path transform="translate(925,500)" d="m0 0h8l3 3v3l-4-1-1-1h-5l-1 3 11 4 1 1v5l-3 3-7 1-5-3-1-5 4 2 6 2 2-1 1-3-10-2-3-3 1-6z" fill="#51F07B"/>
<path transform="translate(1228,434)" d="m0 0 3 1v23h6v3h-18v-3l8-1v-16h-7l1-3 6-1z" fill="#51F07B"/>
<path transform="translate(460,197)" d="m0 0h17v3h-7v21h7v3h-17v-3h7v-21h-7z" fill="#FEFEFE"/>
<path transform="translate(1641,144)" d="m0 0 7 2 2 5-4-1-5-2-2 1v3l9 3 3 3-1 5-3 2h-9l-4-5v-2l4 1v2l9 1-1-4-10-3-1-2v-6z" fill="#51F07B"/>
<path transform="translate(645,18)" d="m0 0 9 1 2 5v19h7l-1 3h-17l-1-3h8v-21l-7-1z" fill="#FEFEFE"/>
<path transform="translate(1127,619)" d="m0 0h3l5 13v3h2l2-9 3-7h3l-2 9-6 15-2 2h-6v-2l5-2-7-19z" fill="#FEFEFE"/>
<path transform="translate(1064,560)" d="m0 0 8 1 2 2v4l-4-2-5-1-2 1 1 3 9 3 2 2v5l-4 3h-8l-4-4v-3h3l3 3h6v-3l-10-3-2-3 1-5z" fill="#51F07B"/>
<path transform="translate(1428,25)" d="m0 0 4 1 7-1 4 4 1 4v12h-4l-1-16h-6l-1 1-1 15h-4v-12z" fill="#51F07B"/>
<path transform="translate(806,493)" d="m0 0h3l1 8 2-1h7l3 4v16h-3l-1-17-7 1-1 2-1 14h-3z" fill="#51F07B"/>
<path transform="translate(675,323)" d="m0 0 5 1 2 2v9l-5 5-6-1-1-3v-9z" fill="#09080A"/>
<path transform="translate(1842,197)" d="m0 0h8l2 2 1 5v17h6l1 3h-19v-3h8v-21h-7z" fill="#FEFEFE"/>
<path transform="translate(300,613)" d="m0 0h3l1 7 7-1 4 3 1 4v13h-3l-1-13-1-3h-6l-1 2-1 14-3 1z" fill="#51F07B"/>
<path transform="translate(1290,612)" d="m0 0h2v9l4-2 7 1 2 3v16h-3l-1-17-7 2-2 16-3-1v-26z" fill="#51F07B"/>
<path transform="translate(811,560)" d="m0 0 8 1 2 3v3l-4-2-6-1v4l9 3 2 2v5l-4 3h-7l-5-4v-3l6 3h6v-3l-10-3-2-2 1-7z" fill="#51F07B"/>
<path transform="translate(944,493)" d="m0 0h3v9l3-2h7l3 4v16h-3l-1-17-7 1-1 2-1 14h-3z" fill="#51F07B"/>
<path transform="translate(1524,25)" d="m0 0h6l5 5-2 2-4-3-6 1v2l11 4 1 1v6l-4 3h-7l-5-5v-2l4 1 3 2h5v-3l-9-3-2-2v-6z" fill="#51F07B"/>
<path transform="translate(829,434)" d="m0 0h3v9l3-2h7l3 5v15h-3l-1-17-7 1-1 2-1 14h-3z" fill="#51F07B"/>
<path transform="translate(857,84)" d="m0 0h6l4 3-1 4-4-3h-5v4l9 3 2 2v5l-4 3h-7l-5-4v-3l4 1v2h8v-3l-9-3-3-3 1-6z" fill="#51F07B"/>
<path transform="translate(879,441)" d="m0 0h7l4 3v3l-4-1-1-1h-7l1 3 11 4 1 6-3 3-7 1-5-3-1-4 4 1 3 2 5-1-1-3-9-3-2-2 1-6z" fill="#51F07B"/>
<path transform="translate(1543,145)" d="m0 0h2v2l3-2h8l3 6v13h-4l-1-15-5-1-2 2-1 15-4-1v-9z" fill="#51F07B"/>
<path transform="translate(627,139)" d="m0 0 3 1v5h8l-1 3h-7v14h8v3h-9l-3-5v-12h-6v-3h6v-5z" fill="#FEFEFE"/>
<path transform="translate(991,84)" d="m0 0h2l1 15 1 2h5l1-1 1-15h4v19h-3-2l-7 1-4-4v-16z" fill="#51F07B"/>
<path transform="translate(1980,203)" d="m0 0 4 2 3-2 6 1 3 5v15h-3l-1-3-1-13-5-1-2 2-1 15h-3z" fill="#FEFEFE"/>
<path transform="translate(606,144)" d="m0 0 6 1 3 5v15l-4-1-1-15-5-1-2 2-1 15h-3v-20l4 1z" fill="#FEFEFE"/>
<path transform="translate(1864,204)" d="m0 0h4l1 16 4 1 3-3 1-14h3v20l-4-1-1 1h-7l-3-3-1-3z" fill="#FEFEFE"/>
<path transform="translate(304,203)" d="m0 0h3l1 2 1-1h8l-1 3-7 2-1 12h6v3h-15v-3h5v-14l-5-1v-2z" fill="#FEFEFE"/>
<path transform="translate(1157,203)" d="m0 0 7 1 3 3 1 3h-4l-2-2h-6l-1 2v8l2 2h5l3-3h3l-2 5-2 2h-9l-4-5-1-7 2-5z" fill="#FEFEFE"/>
<path transform="translate(558,139)" d="m0 0 3 1v5h8l-1 3h-7l1 13 7 1v3h-9l-2-2-2-15-5-1v-2h6v-5z" fill="#FEFEFE"/>
<path transform="translate(331,612)" d="m0 0 2 1 1 23 5 1v2l-3 1h-14l-1-3h8v-17l-7-1v-2l7-2z" fill="#51F07B"/>
<path transform="translate(1639,203)" d="m0 0h3v3h2v-2h8l-1 3-7 2-1 12h6v3h-15v-3h5v-14l-5-1v-2z" fill="#FEFEFE"/>
<path transform="translate(626,203)" d="m0 0h3v2l2-1h8l-1 3-7 2-1 12h6v3h-15v-3h6l-1-2v-12l-5-1v-2z" fill="#FEFEFE"/>
<path transform="translate(537,203)" d="m0 0 6 1 3 5v15h-3l-2-16-5-1-2 2-1 15h-3v-20l4 1z" fill="#FEFEFE"/>
<path transform="translate(304,144)" d="m0 0h3l1 2 2-1h7l-1 3-7 2-1 12h6v3h-15v-3h5v-14l-5-1v-2z" fill="#FEFEFE"/>
<path transform="translate(1057,138)" d="m0 0h20v3h-8v23l-4 1v-24h-8z" fill="#FEFEFE"/>
<path transform="translate(327,79)" d="m0 0h3v5h8l1 3h-8l1 14 7 1-1 3-9-1-2-4v-13h-7l1-3h6z" fill="#FEFEFE"/>
<path transform="translate(304,79)" d="m0 0h4v5h7l1 3h-8l1 14 7 1-1 3-9-1-2-4v-13h-6v-3h6z" fill="#FEFEFE"/>
<path transform="translate(511,20)" d="m0 0 4 1-1 4h8l1 3h-8l1 14 7 1-1 3-9-1-2-4v-13h-6v-3h6z" fill="#FEFEFE"/>
<path transform="translate(327,20)" d="m0 0h3v5h8l1 3h-8l1 14 7 1-1 3-9-1-2-4v-13h-7l1-3h6z" fill="#FEFEFE"/>
<path transform="translate(535,324)" d="m0 0h5l3 3v9l-4 4-5-1-3-5 1-7z" fill="#070608"/>
<path transform="translate(120,324)" d="m0 0 7 1 2 3v7l-5 5-5-2-2-2v-8z" fill="#070608"/>
<path transform="translate(1295,147)" d="m0 0 6 1 2 3v7l-4 5-5-1-3-3v-8z" fill="#070608"/>
<path transform="translate(120,87)" d="m0 0h6l3 4v7l-3 4h-6l-3-4v-8z" fill="#070608"/>
<path transform="translate(369,25)" d="m0 0h7v2l4-2h5v3l-7 2-1 13h6v3h-14l-1-3h5v-15h-5z" fill="#FEFEFE"/>
<path transform="translate(121,206)" d="m0 0 6 1 2 3v7l-5 5-5-2-2-2v-8z" fill="#070608"/>
<path transform="translate(1940,203)" d="m0 0 7 1 3 3v4l-4-2-5-2-3 2v10l1 1h6l2-3 4 1-3 5-2 1h-8l-4-4-1-3v-7l3-5z" fill="#FEFEFE"/>
<path transform="translate(121,147)" d="m0 0 6 1 2 3v7l-5 5-5-2-2-2v-8z" fill="#070608"/>
<path transform="translate(276,84)" d="m0 0h3l1 14 1 3h5l2-6 1-11 3 1v19l-3 1-1-2-2 2h-6l-3-3-1-2z" fill="#FEFEFE"/>
<path transform="translate(1179,28)" d="m0 0h6l3 4v7l-3 4h-6l-3-4v-8z" fill="#070608"/>
<path transform="translate(120,28)" d="m0 0h6l3 4v7l-3 4h-6l-3-4v-8z" fill="#070608"/>
<path transform="translate(281,203)" d="m0 0 4 2 1-1h7v3l-8 1v13h6v3h-15v-3h5v-14l-5-1v-2z" fill="#FEFEFE"/>
<path transform="translate(898,84)" d="m0 0 3 1 1 15 1 1h5l1-2 1-14 3-1v21l-4-1-7 1-4-4-1-4v-8z" fill="#51F07B"/>
<path transform="translate(1050,560)" d="m0 0 2 1v19h-3-2l-1 1h-6l-4-4v-16h3l1 14 1 2h5l1-1 2-15z" fill="#51F07B"/>
<path transform="translate(1088,203)" d="m0 0 3 2 1-1h7v3l-8 1v13h6v3h-15v-3h5v-14l-5-1v-2z" fill="#FEFEFE"/>
<path transform="translate(1388,203)" d="m0 0 7 1 3 4-1 3-3-1-1-2-4-1-3 1-1 2v7l2 3h5l3-3h3l-1 4-3 3h-8l-5-5-1-6 3-7z" fill="#FEFEFE"/>
<path transform="translate(437,145)" d="m0 0h17v3l-7 2-1 12h6v3h-15v-3l5-1v-13l-5-1z" fill="#FEFEFE"/>
<path transform="translate(1474,25)" d="m0 0h2l2 2 2-2 7 1 3 6v13l-2 1-2-1-1-16h-6l-1 2-1 14h-3z" fill="#51F07B"/>
<path transform="translate(1710,203)" d="m0 0 7 1 3 3v4l-4-2-5-2-3 2-1 7 2 4h6l2-3h3l-1 5-3 2h-8l-4-4-1-2v-8l4-6z" fill="#FEFEFE"/>
<path transform="translate(789,203)" d="m0 0 7 1 3 4v3l-4-2-5-2-4 4 1 8 1 1h6l2-3h3l-1 5-3 2h-8l-4-4-1-2v-8l3-5z" fill="#FEFEFE"/>
<path transform="translate(538,144)" d="m0 0 6 2 2 4v15h-3l-2-16-5-1-2 2-1 15h-3v-20l4 1z" fill="#FEFEFE"/>
<path transform="translate(511,87)" d="m0 0h6l3 3v9l-3 3-7-1-2-4 1-8z" fill="#070608"/>
<path transform="translate(1409,28)" d="m0 0h6l3 4v7l-3 4-7-1-2-3 1-9z" fill="#070608"/>
<path transform="translate(627,614)" d="m0 0 3 1v4h7l1 3h-8l1 14 7 1v2l-5 1-6-2-1-4v-12h-6v-3h6z" fill="#51F07B"/>
<path transform="translate(1173,441)" d="m0 0h3l6 15 6-15h3l-3 11-5 13-3 2h-4v-3l4-2-7-19z" fill="#51F07B"/>
<path transform="translate(219,75)" d="m0 0 4 1v2l-6 1v7l-3 6 3 5 1 7 5 2v2h-6l-3-3-2-10-5-2v-3l5-2 2-10z" fill="#FEFEFE"/>
<path transform="translate(1340,28)" d="m0 0h6l3 4v7l-3 4-7-1-2-4 1-8z" fill="#070608"/>
<path transform="translate(1150,560)" d="m0 0h3l5 13v3h2l3-11 3-5h2l-2 9-5 13-3 4h-5v-2l4-1-3-10-4-11z" fill="#51F07B"/>
<path transform="translate(997,203)" d="m0 0h4v18h7v3h-19v-3l8-1v-13h-7v-3z" fill="#FEFEFE"/>
<path transform="translate(490,203)" d="m0 0 7 1 3 4-1 3-3-1-1-2-4-1-3 1-1 2v7l2 3h7l1-3h3l-1 4-3 3h-8l-5-5v-10l4-5z" fill="#FEFEFE"/>
<path transform="translate(217,195)" d="m0 0h6v2l-5 2-2 9-2 3 3 6 1 6 5 2-1 3-7-2-3-11-5-3 1-3 5-1v-7l2-5z" fill="#FEFEFE"/>
<path transform="translate(719,25)" d="m0 0h6l5 4v3l-4-1-2-2-6 1-1 8 1 4h6l4-4h2l-1 5-4 3h-6l-5-4-1-2v-9l4-5z" fill="#FEFEFE"/>
<path transform="translate(219,16)" d="m0 0 4 1v2l-6 1v8l-3 5 3 5 1 7 5 2v2h-6l-3-3-2-10-5-2 1-3 4-2 2-10z" fill="#FEFEFE"/>
<path transform="translate(1336,560)" d="m0 0 3 2 3-2 7 1 2 3v17l-3-1-1-17-7 2-1 3-1 13-3-1v-19z" fill="#51F07B"/>
<path transform="translate(836,203)" d="m0 0 6 1 3 4v16h-3l-1-17h-6l-2 3-1 14h-3v-20l4 1z" fill="#FEFEFE"/>
<path transform="translate(1064,87)" d="m0 0 7 1 2 4-1 7-3 3h-5l-3-4v-7z" fill="#070608"/>
<path transform="translate(1179,25)" d="m0 0 8 1 4 6-1 9-5 5h-6l-5-5-1-2v-7l4-6zm0 3-3 3v8l3 4h6l3-4v-7l-3-4z" fill="#F561C7"/>
<path transform="translate(1502,20)" d="m0 0 3 1v3l7 1v3h-7l1 14 7 1v2h-10l-2-4v-13h-6v-3h6z" fill="#51F07B"/>
<path transform="translate(1321,612)" d="m0 0 2 1 1 23 5 1v2l-3 1h-14l-1-3 8-1v-16l-7-1v-2l7-2z" fill="#51F07B"/>
<path transform="translate(99,206)" d="m0 0 5 1 2 2v9l-4 4-5-1-2-3v-8z" fill="#070608"/>
<path transform="translate(1526,147)" d="m0 0 5 1 2 3v7l-3 4h-6l-3-4v-6z" fill="#070608"/>
<path transform="translate(99,147)" d="m0 0 5 1 2 2v9l-4 4-5-1-2-3v-8z" fill="#070608"/>
<path transform="translate(742,87)" d="m0 0 7 1 2 4-1 7-3 3h-5l-3-4v-7z" fill="#070608"/>
<path transform="translate(622,18)" d="m0 0 8 1 2 2 1 21 7 2-1 2h-18v-3h8v-21l-7-1z" fill="#FEFEFE"/>
<path transform="translate(742,555)" d="m0 0 3 1v4h7l1 3h-8l1 14 7 1v2l-6 1-4-1-2-6v-10l-6-1v-3h7z" fill="#51F07B"/>
<path transform="translate(98,324)" d="m0 0h5l3 3v9l-4 4-5-2-2-2v-9z" fill="#070608"/>
<path transform="translate(1456,147)" d="m0 0 6 1 2 3v7l-3 4h-6l-3-5 1-7z" fill="#070608"/>
<path transform="translate(1110,139)" d="m0 0h3l1 5 7 1v3h-8l1 14h7v3h-8l-3-3v-14h-6l-1-3h7z" fill="#FEFEFE"/>
<path transform="translate(1083,84)" d="m0 0 4 1 7-1 4 4v16h-3l-1-15-1-1h-5l-2 4-1 12h-3v-19z" fill="#51F07B"/>
<path transform="translate(650,84)" d="m0 0h6l5 4v3l-4-1-2-2-6 1-1 8 1 4h8l2-4h2l-1 5-4 3h-6l-5-4-1-3v-7l3-5z" fill="#51F07B"/>
<path transform="translate(875,619)" d="m0 0 4 2 2-2h6l4 5v15h-3l-1-14-1-2h-5l-2 2-1 14h-3z" fill="#51F07B"/>
<path transform="translate(1018,503)" d="m0 0h6l3 5-1 7-4 3-5-1-2-3v-8z" fill="#070608"/>
<path transform="translate(217,136)" d="m0 0h6v2l-5 2-2 9-2 3 3 6v7l6 1-1 3-7-2-3-11-5-3 1-3 5-1v-7l3-5z" fill="#FEFEFE"/>
<path transform="translate(806,84)" d="m0 0h2v2l4-2h6l3 3 1 2v15h-3l-1-14-1-2h-5l-2 2-1 14h-3z" fill="#51F07B"/>
<path transform="translate(120,25)" d="m0 0h6l5 5 1 8-3 6-4 2-7-1-4-6v-7l4-6zm0 3-3 3v8l3 4h6l3-4v-7l-3-4z" fill="#F561C7"/>
<path transform="translate(1083,16)" d="m0 0 6 1 3 5 1 7 5 2-1 4-4 1-2 10-3 3h-5v-3l4-1 2-10 2-3-2-2-1-10-6-2z" fill="#FEFEFE"/>
<path transform="translate(972,622)" d="m0 0 7 1 1 2v9l-3 3h-5l-3-3v-9z" fill="#070608"/>
<path transform="translate(764,444)" d="m0 0h7l2 2v10l-4 3-5-1-2-3v-8z" fill="#070608"/>
<path transform="translate(760,84)" d="m0 0 4 2 2-2h6l3 3 1 2v15h-3l-1-14-1-2h-6l-1 2-1 14h-3z" fill="#51F07B"/>
<path transform="translate(120,84)" d="m0 0h6l5 5 1 8-3 6-4 2-7-1-4-6v-7l4-6zm0 3-3 3v8l3 4h6l3-4v-7l-3-4z" fill="#F561C7"/>
<path transform="translate(857,622)" d="m0 0 7 1 1 2v9l-3 3h-5l-3-3v-9z" fill="#070608"/>
<path transform="translate(902,441)" d="m0 0h8l4 4v3l-4-2-1-1h-6l-2 3v6l4 4 4-1 2-3h3l-1 5-5 3-7-1-4-6v-7l3-5z" fill="#51F07B"/>
<path transform="translate(631,434)" d="m0 0h7v3l-7 1-1 3h8l-1 3h-7v17h-3v-17h-6v-3h6l1-6z" fill="#51F07B"/>
<path transform="translate(515,434)" d="m0 0h8v3l-7 1-1 3h7v3h-7v17h-3v-17h-6v-3h6l1-6z" fill="#51F07B"/>
<path transform="translate(212,324)" d="m0 0h5l3 3v9l-5 4-5-3-1-1v-9z" fill="#070608"/>
<path transform="translate(1181,206)" d="m0 0 5 2 2 4-1 7-2 2h-6l-3-4 1-9z" fill="#070608"/>
<path transform="translate(398,206)" d="m0 0 6 2 1 9-3 4h-6l-3-5 1-7z" fill="#070608"/>
<path transform="translate(1680,145)" d="m0 0h3l2 16 4 1 3-3 1-14h3v20l-4-1-1 1h-7l-3-3-1-4z" fill="#51F07B"/>
<path transform="translate(1597,144)" d="m0 0 6 2 2 5v14h-3l-1-13-2-4-5 1-1 1-1 15h-3v-20l4 1z" fill="#51F07B"/>
<path transform="translate(1566,25)" d="m0 0h2l1 14 1 3h7l1-16h3v19h-3l-8 1-4-3-1-3v-14z" fill="#51F07B"/>
<path transform="translate(1318,25)" d="m0 0h6l5 5v2l-4-1-2-2h-5l-2 2v8l2 3h5l3-4h3l-1 5-4 3h-7l-5-6v-9l4-5z" fill="#51F07B"/>
<path transform="translate(921,25)" d="m0 0h8v2l5-2 4 1v2l-7 2-1 3v9l6 1-1 3h-14v-3h5v-15h-5z" fill="#FEFEFE"/>
<path transform="translate(553,25)" d="m0 0h7l2 1 7-1v3l-7 1-1 14h6v3h-14l-1-3 5-1v-13l-5-1z" fill="#FEFEFE"/>
<path transform="translate(898,560)" d="m0 0h2v2l5-2 6 1 3 5v14l-3 1-1-15-1-2h-7l-1 16h-3z" fill="#51F07B"/>
<path transform="translate(1296,206)" d="m0 0 5 2 2 3-1 8-2 2h-6l-3-4v-6z" fill="#070608"/>
<path transform="translate(1663,198)" d="m0 0 3 1v5h8l-1 3h-7l1 13 7 1v3h-9l-2-2-1-15h-5l-1-3 6-1z" fill="#FEFEFE"/>
<path transform="translate(1018,198)" d="m0 0h3v6h8l-1 3h-7l1 13 7 1v3h-8l-3-3-1-14h-5l-1-3 6-1z" fill="#FEFEFE"/>
<path transform="translate(1618,139)" d="m0 0 2 1v5h8v2l-7 1-1 14h7l1 3h-8l-3-2-2-15-5-1v-2l6-1z" fill="#51F07B"/>
<path transform="translate(673,87)" d="m0 0h5l3 3v9l-3 3h-5l-3-3v-9z" fill="#070608"/>
<path transform="translate(98,87)" d="m0 0h5l3 3v9l-3 3h-5l-3-3v-9z" fill="#070608"/>
<path transform="translate(1387,28)" d="m0 0 7 1 1 2v9l-3 3h-5l-3-4v-7z" fill="#070608"/>
<path transform="translate(98,28)" d="m0 0h5l3 3v9l-3 3h-5l-3-3v-9z" fill="#070608"/>
<path transform="translate(668,322)" d="m0 0 4 1 1-1h7l4 4 1 8-4 6-5 2h-3l-1-3 7-1 2-3v-9l-3-1v-2l-7 4v11h-1v9h-3v-20z" fill="#F564C8"/>
<path transform="translate(1411,206)" d="m0 0 5 2 2 3v6l-3 4h-6l-3-5 1-7z" fill="#070608"/>
<path transform="translate(329,206)" d="m0 0 5 1 2 4v6l-3 4h-6l-3-5 1-7z" fill="#070608"/>
<path transform="translate(926,203)" d="m0 0 4 2 1-1h7l-1 3-6 1-2 13h7v3h-15v-3h5l-1-14-4-1v-2z" fill="#FEFEFE"/>
<path transform="translate(119,204)" d="m0 0h8l4 4 1 8-3 6-3 2h-7l-5-6v-8l3-5zm2 2-4 4v8l5 4 5-2 2-3v-7l-4-4z" fill="#F561C7"/>
<path transform="translate(897,145)" d="m0 0h9 2 7l-1 3-6 1-1 2-1 11h6l1 3h-15v-3h5v-14h-5z" fill="#FEFEFE"/>
<path transform="translate(880,20)" d="m0 0h3v5h8v3h-8l1 15h7v3l-9-1-2-2v-15h-7l1-3h6z" fill="#FEFEFE"/>
<path transform="translate(1203,563)" d="m0 0h5l3 4v7l-3 4h-5l-3-3v-9z" fill="#070608"/>
<path transform="translate(258,563)" d="m0 0h5l3 3v9l-3 3h-5l-3-4v-7z" fill="#070608"/>
<path transform="translate(622,554)" d="m0 0h8l2 2 1 21 6 1v3h-17l-1-3h8v-21l-7-1z" fill="#51F07B"/>
<path transform="translate(1042,444)" d="m0 0h6l2 3v8l-4 4-5-1-2-3v-8z" fill="#070608"/>
<path transform="translate(990,441)" d="m0 0 5 1 1-1h7l3 5v15h-3l-1-17-7 1-1 2-1 14h-3z" fill="#51F07B"/>
<path transform="translate(741,441)" d="m0 0h8l4 4v3l-4-2-7-1-2 3v7l1 3h6l3-4h3l-1 5-5 3-7-1-4-6v-8z" fill="#51F07B"/>
<path transform="translate(161,382)" d="m0 0 3 1 1 14 1 2h5l2-3 1-14 3 1v19h-3v-2l-5 3-6-2-2-3z" fill="#F561C7"/>
<path transform="translate(119,322)" d="m0 0h8l4 4 1 8-3 6-3 2h-7l-5-6v-8l3-5zm1 2-3 4v8l5 4 5-2 2-3v-7l-4-4z" fill="#F561C7"/>
<path transform="translate(813,206)" d="m0 0 5 2 1 1v10l-2 2h-6l-3-4v-7l2-3z" fill="#070608"/>
<path transform="translate(1963,206)" d="m0 0 5 1 2 2v9l-3 3h-5l-3-3v-8z" fill="#070608"/>
<path transform="translate(649,203)" d="m0 0 4 1h2 7l-1 3-7 2-1 12h6v3h-14v-3h5l-1-14-5-1 1-2z" fill="#FEFEFE"/>
<path transform="translate(1293,145)" d="m0 0h8l5 6v7l-3 5-2 2h-8l-4-4-1-9 3-5zm2 2-4 4v8l5 4 4-1 3-4v-7l-4-4z" fill="#F561C7"/>
<path transform="translate(1013,145)" d="m0 0h8 2 7l-1 3-6 1-1 2-1 11h6l1 3h-15v-3h5v-14h-5z" fill="#FEFEFE"/>
<path transform="translate(737,145)" d="m0 0h8 2 7v3l-7 1-2 13h6l1 3h-15v-3h5v-14l-5-1z" fill="#FEFEFE"/>
<path transform="translate(119,145)" d="m0 0h8l4 4 1 8-3 6-3 2h-7l-5-6v-8l3-5zm2 2-4 4v8l5 4 5-2 2-3v-7l-4-4z" fill="#F561C7"/>
<path transform="translate(1197,136)" d="m0 0h6l3 2 2 10 5 3v3l-5 2-2 10-2 2-6 1v-3l5-1 1-10 3-4h-2l-2-9v-3h-5z" fill="#FCFDFD"/>
<path transform="translate(720,87)" d="m0 0 6 1 2 4-1 7-3 3-6-1-2-5 1-6z" fill="#070608"/>
<path transform="translate(415,75)" d="m0 0 6 1 3 4 1 9 6 2-3 3h-3l-1 10-4 4h-5v-3l5-2 2-10h2l-3-5-1-8-5-2z" fill="#FEFEFE"/>
<path transform="translate(275,25)" d="m0 0 4 1 4 12v3h2l2-9 3-7h3l-2 9-5 12-4-1-4-9-3-8z" fill="#FEFEFE"/>
<path transform="translate(950,622)" d="m0 0h5l3 4-1 9-2 2h-5l-3-3v-9z" fill="#070608"/>
<path transform="translate(857,560)" d="m0 0h6l5 5v2l-4-1-2-2-6 1-1 2v7l2 3h6l4-4 1 4-5 4h-6l-5-4-1-3v-7l3-5z" fill="#51F07B"/>
<path transform="translate(926,555)" d="m0 0h3v5h8v3h-8l1 15h7l-1 3-8-1-2-3v-14h-7l1-3h6z" fill="#51F07B"/>
<path transform="translate(280,503)" d="m0 0h6l3 3v8l-2 3-5 1-4-4v-8z" fill="#070608"/>
<path transform="translate(829,500)" d="m0 0h11v17l7 1v2h-19l1-3h7v-14h-7z" fill="#51F07B"/>
<path transform="translate(165,444)" d="m0 0h6l3 3v8l-4 4-5-1-2-3v-8z" fill="#070608"/>
<path transform="translate(888,312)" d="m0 0 2 1v2l-5 1-1 10-2 4 2 2 1 10 5 1-1 3-6-2-2-3-1-8-5-2 1-4 4-2 2-10 2-2z" fill="#FEFEFE"/>
<path transform="translate(513,206)" d="m0 0 6 2 1 2v7l-3 4h-6l-2-3v-9z" fill="#070608"/>
<path transform="translate(1757,144)" d="m0 0 7 2 2 5h-3l-5-3-4 1-1 2v7l2 3h6l2-3h3l-1 4-3 3h-8l-4-4-1-2v-9l5-5z" fill="#51F07B"/>
<path transform="translate(1435,144)" d="m0 0 7 2 2 5h-3l-4-3-5 1-1 2v7l2 3h6l2-3h3l-1 4-3 3h-8l-4-4-1-2v-9l5-5z" fill="#51F07B"/>
<path transform="translate(351,87)" d="m0 0h5l3 4v7l-4 4-5-1-2-2v-9z" fill="#070608"/>
<path transform="translate(828,25)" d="m0 0 4 2 4 12 1 1 5-14h4l-5 15-3 5-4-1-6-16z" fill="#FEFEFE"/>
<path transform="translate(460,25)" d="m0 0 3 1 5 13 2-3 4-10h4l-6 17-2 3-4-1-6-16z" fill="#FEFEFE"/>
<path transform="translate(759,619)" d="m0 0 4 1 4 5 2 1 2-5 2-2h3l-2 5-3 4 2 5 3 5v2l-4-2-5-5-6 7h-2l2-5 3-4-1-5z" fill="#51F07B"/>
<path transform="translate(783,434)" d="m0 0 9 1 1 2v21l8 1-1 2h-18l1-3h7v-21h-7z" fill="#51F07B"/>
<path transform="translate(533,322)" d="m0 0h9l4 5v9l-5 6h-7l-5-5-1-6 3-7zm2 2-3 3-1 7 3 5 5 1 4-4v-9l-3-3z" fill="#F561C7"/>
<path transform="translate(1733,206)" d="m0 0 6 2 1 2v8l-3 3h-5l-3-3v-9z" fill="#070608"/>
<path transform="translate(674,206)" d="m0 0 6 2 1 2v8l-3 3-7-1-1-2v-8z" fill="#070608"/>
<path transform="translate(1824,147)" d="m0 0 5 1 3 4-1 8-2 2h-6l-3-6 2-7z" fill="#070608"/>
<path transform="translate(1503,147)" d="m0 0 5 1 2 2v10l-2 2h-6l-3-4v-6z" fill="#070608"/>
<path transform="translate(513,147)" d="m0 0 6 2 1 9-3 4h-6l-2-3v-9z" fill="#070608"/>
<path transform="translate(973,87)" d="m0 0h5l3 3v8l-3 4-6-1-2-3v-7z" fill="#070608"/>
<path transform="translate(921,84)" d="m0 0h11v18h7v2l-4 1h-11l-4-2 1-1 7-1v-13l-7-1z" fill="#51F07B"/>
<path transform="translate(1018,622)" d="m0 0 6 1 2 4-1 7-3 3-6-1-1-2v-9z" fill="#070608"/>
<path transform="translate(990,613)" d="m0 0h9l2 6v18h7l-1 3h-15l-3-1v-2h9l-1-20-7-2z" fill="#51F07B"/>
<path transform="translate(627,503)" d="m0 0h6l2 2v10l-4 3-5-2-2-3v-6z" fill="#070608"/>
<path transform="translate(667,619)" d="m0 0 4 1 3 4v2l7-7h3l-2 5-3 4 1 4 4 6v2l-4-2-5-5-6 7h-2l2-5 3-4-1-5-4-5z" fill="#51F07B"/>
<path transform="translate(994,503)" d="m0 0h6l3 4v6l-5 5-5-2-2-6z" fill="#070608"/>
<path transform="translate(857,495)" d="m0 0h3v5h8l-1 3h-7v14l8 1v2h-9l-2-2v-15h-6l-1-3 6-1z" fill="#51F07B"/>
<path transform="translate(328,147)" d="m0 0 6 2 1 2v8l-3 3h-5l-3-4v-7z" fill="#070608"/>
<path transform="translate(323,315)" d="m0 0h7l3 3v21l7 1-1 2h-17v-3h8v-21l-7-1z" fill="#F561C7"/>
<path transform="translate(1111,206)" d="m0 0 5 2 2 2v7l-3 4-7-1-1-2v-8z" fill="#070608"/>
<path transform="translate(744,206)" d="m0 0 5 2 1 1v10l-2 2h-6l-3-5 1-7z" fill="#070608"/>
<path transform="translate(844,612)" d="m0 0 1 3-7 2-1 2h7l1 3h-8v18l-3-1v-17h-6v-2l6-1 1-5 1-1z" fill="#51F07B"/>
<path transform="translate(719,503)" d="m0 0h6l3 5-1 7-3 3-5-1-2-3v-8z" fill="#070608"/>
<path transform="translate(690,441)" d="m0 0 4 1 4 5 2 1 2-5 2-2h3l-2 5-3 4 2 5 3 4v2l-4-1-3-4v-2l-7 7-3-1 5-7-1-5z" fill="#51F07B"/>
<path transform="translate(208,382)" d="m0 0 4 1 7-1 4 4v16h-3l-1-16-5-1-2 1-1 3-1 13-3-1v-18z" fill="#F561C7"/>
<path transform="translate(973,206)" d="m0 0 5 2 2 2v7l-3 4h-5l-3-3v-8z" fill="#070608"/>
<path transform="translate(1042,147)" d="m0 0 5 2 2 2v7l-3 4h-5l-3-3v-8z" fill="#070608"/>
<path transform="translate(1041,79)" d="m0 0h3v5h8v3h-8l1 13 7 2v2h-9l-2-3v-14h-6v-3h6z" fill="#51F07B"/>
<path transform="translate(903,614)" d="m0 0h3v5h7l1 3h-8l1 14 7 1v2h-9l-2-2v-15h-7l1-3h6z" fill="#51F07B"/>
<path transform="translate(696,614)" d="m0 0h3v5h7l1 3h-8l1 14 7 1v2h-9l-2-2v-15h-7l1-3h6z" fill="#51F07B"/>
<path transform="translate(970,560)" d="m0 0h4v2l9-2 1 3-7 2-1 1-1 12h6v3h-14l-1-3h6v-15h-5v-2z" fill="#51F07B"/>
<path transform="translate(667,560)" d="m0 0 4 1 4 6 6-7 3 1-5 8 1 4 4 6v2l-4-2-5-5-6 7h-2l2-5 3-4-1-5-4-5z" fill="#51F07B"/>
<path transform="translate(1248,555)" d="m0 0h3v5h7l1 3h-8l1 14 7 1-1 3-8-1-2-3v-14h-7v-2l7-1z" fill="#51F07B"/>
<path transform="translate(606,554)" d="m0 0h9v2l-7 2-1 2h6l2 1v2h-8v17l-3 1v-18h-6v-2l6-1 1-5z" fill="#51F07B"/>
<path transform="translate(575,441)" d="m0 0 4 1 5 5 5-6 3 1-5 8 2 5 3 4v2l-4-1-3-4v-2l-7 7-3-1 5-7-1-5z" fill="#51F07B"/>
<path transform="translate(1526,203)" d="m0 0h4v18h7v3h-18v-3h8v-14h-7l-1-3z" fill="#FEFEFE"/>
<path transform="translate(858,147)" d="m0 0 5 2 2 3v6l-3 4h-5l-3-3v-8z" fill="#070608"/>
<path transform="translate(1090,144)" d="m0 0h3v18h7v3h-18v-3h8v-14h-7l-1-3z" fill="#FEFEFE"/>
<path transform="translate(1018,79)" d="m0 0h3v5h7l1 3h-8l1 14 7 1v2h-9l-2-2v-15h-7l1-3h6z" fill="#51F07B"/>
<path transform="translate(834,79)" d="m0 0h3v5h7l1 3h-8l1 14 7 1v2h-9l-2-2v-15h-7l1-3h6z" fill="#51F07B"/>
<path transform="translate(674,28)" d="m0 0 6 1 1 2v9l-3 3-5-1-3-5 1-6z" fill="#070608"/>
<path transform="translate(783,613)" d="m0 0h8l2 2 1 21 6 1v2l-4 1h-10l-4-1v-2h8l-1-21-6-1z" fill="#51F07B"/>
<path transform="translate(277,560)" d="m0 0h10v18h7l-1 3h-17v-3h8l-1-14-7-1z" fill="#51F07B"/>
<path transform="translate(322,500)" d="m0 0h8v2l3-2h6v3l-7 2-1 12 6 1v2h-15v-2l5-1v-13l-5-2z" fill="#51F07B"/>
<path transform="translate(645,434)" d="m0 0 9 1 1 1v22l8 1-1 2h-18v-2h8v-22h-7z" fill="#51F07B"/>
<path transform="translate(766,147)" d="m0 0 5 2 2 4-1 7-2 2h-6l-2-3v-9z" fill="#070608"/>
<path transform="translate(1712,144)" d="m0 0 3 1v16l7 2-1 2h-18v-3h8v-14h-7v-3z" fill="#51F07B"/>
<path transform="translate(1135,554)" d="m0 0h10v2l-7 1-2 3 8 1v2l-7 1-1 17-3-1v-17h-6v-2l5-1z" fill="#51F07B"/>
<path transform="translate(1128,441)" d="m0 0h8v2l3-2h6v3l-7 2-1 1-1 11 7 1v2h-15v-2l4-1 1-14h-5z" fill="#51F07B"/>
<path transform="translate(438,322)" d="m0 0h2v2l3-2h7l3 3v17l-3-1-1-16h-6l-1 1-1 15-3 1z" fill="#F561C7"/>
<path transform="translate(467,147)" d="m0 0 5 2 1 1v9l-3 3h-5l-2-2-1-7 3-5z" fill="#070608"/>
<path transform="translate(1801,144)" d="m0 0 3 2 2-1h7v2l-8 3-1 12h6v3h-14v-3h5l-1-14-5-1 1-2z" fill="#51F07B"/>
<path transform="translate(1108,560)" d="m0 0h8v18h7l-1 3h-16l-2-2 1-1h8l-1-14-7-1v-2z" fill="#51F07B"/>
<path transform="translate(921,441)" d="m0 0h7 4 6v3l-8 1-1 13 7 1v2h-15v-2l4-1 1-14h-5z" fill="#51F07B"/>
<path transform="translate(530,434)" d="m0 0 9 1 1 1v22l7 1v2h-18v-2h8v-22h-7z" fill="#51F07B"/>
<path transform="translate(1709,20)" d="m0 0h3v5l8 1v2h-8l1 14 7 1v2l-6 1-5-3v-15h-7v-2l6-1z" fill="#51F07B"/>
<path transform="translate(714,322)" d="m0 0 4 1 1-1h8l2 2 1 4v13h-3l-1-14-1-2h-7l-1 8v9l-3-1z" fill="#F15FC4"/>
<path transform="translate(1201,25)" d="m0 0 4 1v2l4-3 4 1 2 3v16h-3l-1-17-3 1-1 16h-3l-1-15-3-4z" fill="#F561C7"/>
<path transform="translate(717,560)" d="m0 0h7l1 17 7 2-1 2h-17l-1-3h8v-15h-7v-2z" fill="#51F07B"/>
<path transform="translate(1087,555)" d="m0 0h3v5l8 1v2h-8l1 14 7 1v2l-5 1-5-2-1-1-1-14-6-1v-2l7-1z" fill="#51F07B"/>
<path transform="translate(144,377)" d="m0 0h2v5h8v3h-8l1 13 1 1 7 1-1 2h-8l-3-5v-12l-7-1 1-2h7l-1-4z" fill="#F561C7"/>
<path transform="translate(300,322)" d="m0 0h2l1 14 2 3 5-1 1-1 1-15h3v19h-3l-9 1-3-3-1-11z" fill="#F561C7"/>
<path transform="translate(73,84)" d="m0 0 4 1v2h2v16l-3 1-1-15-2-2h-2l-1 17h-3v-19z" fill="#F561C7"/>
<path transform="translate(1657,25)" d="m0 0 3 1 5 14 4-9 3-6h2l-1 7-5 13-3 1-3-3-5-14z" fill="#51F07B"/>
<path transform="translate(1014,560)" d="m0 0h12v24l-2 2h-11v-2l10-1-1-19-8-1z" fill="#51F07B"/>
<path transform="translate(299,560)" d="m0 0 3 1 5 14 5-12 2-3h2l-2 9-5 12-4-1-7-19z" fill="#51F07B"/>
<path transform="translate(1589,25)" d="m0 0h10l1 17 7 2v1l-5 1h-12l-2-1v-2h8v-15h-7z" fill="#51F07B"/>
<path transform="translate(206,441)" d="m0 0h3l6 15 6-15h3l-3 11-4 9h-4l-7-18z" fill="#51F07B"/>
<path transform="translate(760,322)" d="m0 0 4 1 2-1h7l3 5v13l-3 1-1-14-2-3-6 2-1 5v9l-3 1z" fill="#F561C7"/>
<path transform="translate(351,316)" d="m0 0 2 1 1 4 7 1v2l-7 1v13l7 1v3h-7l-4-4v-14h-6v-2h6v-5z" fill="#F562C7"/>
<path transform="translate(1252,138)" d="m0 0h8v2l-8 1v4h7l1 2-7 1-1 16-3 1-1-17-5-1v-2h6l1-6z" fill="#F561C7"/>
<path transform="translate(1753,25)" d="m0 0h4l1 2 1-1h7v2l-7 1v13l5 1v2l-12 1-3-1v-2l5-1v-13l-5-1v-2z" fill="#51F07B"/>
<path transform="translate(741,503)" d="m0 0h6l3 3v6l-3 4-7-1-1-2v-8z" fill="#070608"/>
<path transform="translate(1064,444)" d="m0 0h6l2 3v7l-3 3h-5l-3-3v-7z" fill="#070608"/>
<path transform="translate(185,382)" d="m0 0h7v2l4-2h5v3l-8 1v14h6v2h-15v-2l5-1v-13l-5-2z" fill="#F561C7"/>
<path transform="translate(84,321)" d="m0 0 1 3-5 7 4 7 2 4-4-1-4-6-2-1-2 5-3 3h-2l2-5 3-4-1-4-4-7 4 1 3 4v2l4-4z" fill="#F561C7"/>
<path transform="translate(167,316)" d="m0 0h2v6h8v2l-7 1v13l7 2v2h-7l-4-4v-14h-6v-2h6v-5z" fill="#F561C7"/>
<path transform="translate(399,315)" d="m0 0h9v2l-8 1v3l7 1v2h-7v17l-3 1-1-17-6-1v-2h7l1-6z" fill="#F561C7"/>
<path transform="translate(262,315)" d="m0 0h8v2l-8 1v4h8v2h-8v17l-3 1-1-17-5-1v-2h6l1-6z" fill="#F561C7"/>
<path transform="translate(468,78)" d="m0 0h9v2l-7 1v3l7 1v2h-8v17h-3v-17h-6v-2l6-1 1-5z" fill="#F561C7"/>
<path transform="translate(1110,444)" d="m0 0h6l2 2v8l-3 3h-5l-3-4 1-7z" fill="#070608"/>
<path transform="translate(506,322)" d="m0 0h12l-1 17h6l1 3h-18v-3h8v-15h-8z" fill="#F561C7"/>
<path transform="translate(415,322)" d="m0 0h2l1 14 2 3 5-1 1-1 1-15h3v19h-3l-9 1-3-3z" fill="#F561C7"/>
<path transform="translate(184,441)" d="m0 0h11v17l7 1v2h-18v-3h7l1-14h-8z" fill="#51F07B"/>
<path transform="translate(487,84)" d="m0 0h4v3l5-3 4 1v2l-7 2-1 13h6v2l-3 1h-7l-5-1v-2h6v-15h-5l-1-2z" fill="#F561C7"/>
<path transform="translate(1274,21)" d="m0 0 5 1 3 6v10l-1 2h-2v-13l-8 1-2 5-1 6-2-1 1-10 4-6z" fill="#070608"/>
<path transform="translate(1136,19)" d="m0 0h9v2l-7 1-1 4h8l-1 2h-7v17h-3v-17h-6v-2l5-1 2-5z" fill="#F561C7"/>
<path transform="translate(465,322)" d="m0 0h8l4 4v2l-4-1-2-2h-5l-2 3v8l4 3 5-2 1-2h3l-2 5-3 2h-6l-5-4-1-9 3-5z" fill="#F561C7"/>
<path transform="translate(46,204)" d="m0 0h11v17l7 1-1 2h-17l-1-2 2-1h7l-1-14-7-1z" fill="#F561C7"/>
<path transform="translate(1155,25)" d="m0 0 4 1h2 7v2l-8 1-1 14h7v2l-3 1h-9l-3-1v-2h6l-1-2v-12l-5-1v-2z" fill="#F561C7"/>
<path transform="translate(369,554)" d="m0 0h8l2 3v21h7v2h-17l-1-2h8l-1-21-6-1z" fill="#EE5EC2"/>
<path transform="translate(1081,499)" d="m0 0 9 3 9 4-1 5-15 7h-2l1-4 12-6-13-6z" fill="#FEFEFE"/>
<path transform="translate(93,382)" d="m0 0h7v2l4-2h5v3l-7 1-1 3v10l6 1v2h-15v-2l5-1v-9l1-5h-5z" fill="#F561C7"/>
<path transform="translate(144,321)" d="m0 0 2 1v2l3-2h6v2l-7 2-2 13h6v3h-13v-3h5l-1-2v-12l-5-1v-2z" fill="#F561C7"/>
<path transform="translate(166,199)" d="m0 0h3v5h8v2l-7 1v13l7 2v2h-7l-4-4v-14h-6v-2h6z" fill="#F561C7"/>
<path transform="translate(166,140)" d="m0 0h3v5h8v2l-7 1v13l7 2v2h-7l-4-4v-14h-6v-2h6z" fill="#F561C7"/>
<path transform="translate(167,79)" d="m0 0h2l1 5 7 1v2h-8l1 14 7 1v2h-9l-2-4v-13h-6v-2l6-1z" fill="#F561C7"/>
<path transform="translate(1018,28)" d="m0 0 6 1 2 2v7l-3 3h-5l-3-3v-6z" fill="#070608"/>
<path transform="translate(437,677)" d="m0 0 16 7 1 5-15 7h-3l2-4 11-5-12-6-1-3z" fill="#FEFEFE"/>
<path transform="translate(292,677)" d="m0 0 1 3-13 7 13 6v3l-5-1-12-6-1-4 14-7z" fill="#FEFEFE"/>
<path transform="translate(1335,618)" d="m0 0 16 7 1 5-15 7h-3l2-4 11-5-13-7z" fill="#FEFEFE"/>
<path transform="translate(1259,618)" d="m0 0 1 3-13 7 12 6 1 3-5-1-13-6 1-5z" fill="#FEFEFE"/>
<path transform="translate(1058,618)" d="m0 0 17 7 1 4-6 4-9 4h-3v-3l13-6-13-7z" fill="#FEFEFE"/>
<path transform="translate(289,619)" d="m0 0h4l-1 3-12 6 13 6v3l-5-1-12-6-1-4z" fill="#FEFEFE"/>
<path transform="translate(1312,440)" d="m0 0 6 2 11 5v5l-16 7-2-2 1-2 12-5-3-2-9-5z" fill="#FEFEFE"/>
<path transform="translate(153,440)" d="m0 0h2l-1 4-12 5 13 7v3l-9-3-8-4-1-4 5-3z" fill="#FEFEFE"/>
<path transform="translate(167,20)" d="m0 0h2l1 5 7 1v2h-8l1 14 7 1v2h-9l-2-4v-13h-6v-2l5-1z" fill="#F561C7"/>
<path transform="translate(1380,560)" d="m0 0 6 1 12 6-1 5-14 6h-3l2-4 11-5-13-7z" fill="#FEFEFE"/>
<path transform="translate(199,499)" d="m0 0h2v3l-13 6 13 7v3l-9-3-9-5 1-4z" fill="#FEFEFE"/>
<path transform="translate(553,322)" d="m0 0h2v2l3-2h7l3 3v17h-2l-1-15-1-2h-6l-1 1-1 15h-3z" fill="#F561C7"/>
<path transform="translate(243,560)" d="m0 0h4l-1 3-12 6 12 6 1 3-5-1-13-6 1-5z" fill="#FEFEFE"/>
<path transform="translate(789,316)" d="m0 0 2 1v5h8l-1 2h-7l1 14 7 2-1 2-8-1v-2l-2-1v-14h-7v-2h7v-5z" fill="#F561C7"/>
<path transform="translate(138,204)" d="m0 0h8v2l3-2h6v2l-7 2-2 13 7 1v2h-14l-1-2 6-1-1-2v-12l-5-1z" fill="#F561C7"/>
<path transform="translate(143,25)" d="m0 0 4 2 2-1h6v2l-8 1-1 14h7v2l-10 1-5-1v-2h6l-1-2v-12l-5-1v-2z" fill="#F561C7"/>
<path transform="translate(264,373)" d="m0 0h2l-4 10v13l4 8v2l-4-2-5-10v-9l3-7z" fill="#FEFEFE"/>
<path transform="translate(832,312)" d="m0 0 3 1 4 6 2 6v8l-4 9-5 4 1-4 3-7v-12l-4-8z" fill="#FEFEFE"/>
<path transform="translate(817,312)" d="m0 0h2l-2 5-3 8v8l3 8 2 5-4-2-4-6-1-3v-12l4-8z" fill="#FEFEFE"/>
<path transform="translate(1311,145)" d="m0 0h4l5 1v2h2v16l-3 1-1-18-3 1-1 2-1 15-3-1z" fill="#F561C7"/>
<path transform="translate(46,145)" d="m0 0h11l1 17 6 1-1 2h-17v-2l8-1-1-14-7-1z" fill="#F561C7"/>
<path transform="translate(489,316)" d="m0 0h2l1 5 8 1v2h-8v15h7v3l-9-1-1-2-1-14-6-1v-2h7z" fill="#F561C7"/>
<path transform="translate(1266,145)" d="m0 0h8v2l3-2h6v2l-7 2-2 13 7 1v2h-14v-3h5l-1-14-5-1z" fill="#F561C7"/>
<path transform="translate(138,145)" d="m0 0h8v2l3-2h6v2l-7 2-2 13 7 1v2h-14l-1-2 5-1v-14l-5-1z" fill="#F561C7"/>
<path transform="translate(1278,611)" d="m0 0h3l-2 9-9 24h-3l3-11z" fill="#FEFEFE"/>
<path transform="translate(418,500)" d="m0 0h7l4 4v12l2 4-6-2v-3l1-4-11 2 1-3 10-3-1-3-4-2-4 4h-3l2-5z" fill="#F260C5"/>
<path transform="translate(142,84)" d="m0 0 4 1h3 6v2l-8 1-1 14h7v2h-15v-2l5-1v-13l-5-1v-2z" fill="#F561C7"/>
<path transform="translate(53,25)" d="m0 0h4v18h6l1 2h-18v-2h8l-1-14-7-1v-2z" fill="#F561C7"/>
<path transform="translate(53,84)" d="m0 0h4v18h6l1 2h-18v-2h8v-15h-8v-2z" fill="#F561C7"/>
<path transform="translate(419,619)" d="m0 0 7 1 3 4v12l-5 1 3-7-9 2-4-1 7-3 5-1-1-4h-6l-5 2 2-4z" fill="#F561C7"/>
<path transform="translate(1085,616)" d="m0 0h9l2 2v5l-4 3h-6l-1-1z" fill="#070608"/>
<path transform="translate(956,76)" d="m0 0 3 1-10 29-2 3h-2l2-9 8-22z" fill="#51F07B"/>
<path transform="translate(887,76)" d="m0 0 3 1-9 26-3 6h-2l2-9 8-22z" fill="#51F07B"/>
<path transform="translate(1822,200)" d="m0 0h8l3 4-2 5-1 1h-8z" fill="#070608"/>
<path transform="translate(634,76)" d="m0 0 3 1-11 31-3 1 2-9 8-22z" fill="#51F07B"/>
<path transform="translate(1624,17)" d="m0 0h2l-2 9-8 22-1 2h-2l1-7 9-25z" fill="#51F07B"/>
<path transform="translate(1555,17)" d="m0 0h2l-2 9-8 22-1 2h-2l1-7 9-25z" fill="#51F07B"/>
<path transform="translate(1302,17)" d="m0 0h2l-3 11-7 19-2 3h-2l3-11 7-19z" fill="#51F07B"/>
<path transform="translate(1740,136)" d="m0 0 1 4-10 28-3 1 2-9 8-22z" fill="#51F07B"/>
<path transform="translate(1671,136)" d="m0 0 1 4-10 28-3 1 2-9 8-22z" fill="#51F07B"/>
<path transform="translate(1417,136)" d="m0 0h2l-3 11-8 22h-3l3-10 8-22z" fill="#51F07B"/>
<path transform="translate(1500,200)" d="m0 0h7l3 2v6l-3 2h-7z" fill="#070608"/>
<path transform="translate(489,560)" d="m0 0 6 1 3 4v11l-3-3v-2l-10 2-1-2 11-3v-4h-9v2h-3l2-4z" fill="#F561C7"/>
<path transform="translate(257,92)" d="m0 0 9 1 1 1v6l-2 1h-8l-1-1v-7z" fill="#070608"/>
<path transform="translate(1278,442)" d="m0 0h2v11l-3 5-4 1-2-1 1-5z" fill="#070608"/>
<path transform="translate(303,441)" d="m0 0h7l3 3 1 2v11l-2 2h-3v2l-5 1v-3l5-2 2-3v-3l-2-2 2-2-3-4-3-1v2l-4 3-1-4z" fill="#F561C7"/>
<path transform="translate(1272,437)" d="m0 0h5l1 2-8 14-2-1v-9l2-5z" fill="#070608"/>
<path transform="translate(1255,443)" d="m0 0h2v9l-3 6-5 1-1-4 6-11z" fill="#070608"/>
<path transform="translate(1248,437)" d="m0 0h6l-1 5-6 11h-2v-11z" fill="#070608"/>
<path transform="translate(442,441)" d="m0 0h7l4 4 1 7h-13l1-2 8-1-1-4-4-2-4 3-2 3-1-4z" fill="#F561C7"/>
<path transform="translate(536,560)" d="m0 0 6 1 4 5v5h-11l-2-2h10l-2-5h-8l-1 3h-2l1-4z" fill="#F561C7"/>
<path transform="translate(392,493)" d="m0 0 8 1 2 3 1 21h-2l-2-2v-20h-6z" fill="#F561C7"/>
<path transform="translate(483,493)" d="m0 0h4v6h-2l1 2v18h-3v-19l1-4z" fill="#F569C9"/>
<path transform="translate(0,495)" d="m0 0 4 4v13l-3 6h-1z" fill="#FEFEFE"/>
<path transform="translate(0,556)" d="m0 0 3 2 1 3v12l-3 6h-1z" fill="#9B9B9C"/>
<path transform="translate(256,81)" d="m0 0h9l1 1v5l-2 2h-7z" fill="#070608"/>
<path transform="translate(483,613)" d="m0 0h3l1 5h-2l1 7v14h-3v-20l1-4z" fill="#F569CA"/>
<path transform="translate(740,322)" d="m0 0h9l4 5v6h-12l-1-3h9l2-3h-2v-2h-2v-2l-7 2-1 2v-4z" fill="#EE5EC1"/>
<path transform="translate(352,560)" d="m0 0 7 1 3 5h-3l-7-3-4 4v6l1 4h-2v-3h-2v-7l3-5z" fill="#F563C7"/>
<path transform="translate(557,500)" d="m0 0h7l4 4 1 7h-13v-1l9-2-1-4-2-1v-2l-5 3h-2v2h-2l2-5z" fill="#F561C7"/>
<path transform="translate(368,434)" d="m0 0 4 1 2 3-1 3-2-1-1 21-2-1z" fill="#F15FC4"/>
<path transform="translate(674,322)" d="m0 0h6l4 4 1 8-4 6-5 2h-3l-1-3 7-1 2-3v-9l-3-1v-2l-6 2z" fill="#F561C7"/>
<path transform="translate(392,613)" d="m0 0h7l2 1 1 3v20l-3-2-1-19-6-1z" fill="#F561C7"/>
<path transform="translate(1323,145)" d="m0 0h5l2 3v17h-3l-1-17h-4z" fill="#F561C7"/>
<path transform="translate(81,84)" d="m0 0 5 1 1 2v17h-3l-1-16-4-2z" fill="#F561C7"/>
<path transform="translate(396,560)" d="m0 0 7 1 3 5v12l-2-4-1-3-1-6-1-1-7 1-3 1 2-4z" fill="#F561C7"/>
<path transform="translate(460,554)" d="m0 0h4l1 3-1 2h-2v5h1v15l-3 1z" fill="#F561C7"/>
<path transform="translate(519,560)" d="m0 0 4 1 1 3v15l-3 1-1-16-3-1v-2z" fill="#F561C7"/>
<path transform="translate(558,619)" d="m0 0 7 1 4 5-1 5-3-1v-6h-8l-2 5-2-3 2-4z" fill="#F563C7"/>
<path transform="translate(678,499)" d="m0 0h1v12h-9l4-7z" fill="#070608"/>
<path transform="translate(122,384)" d="m0 0 5 2 2 4-1 1h-10l-1-3 2-3z" fill="#070608"/>
<path transform="translate(1196,25)" d="m0 0 4 3-1 2-1 15h-3v-19z" fill="#F561C7"/>
<path transform="translate(395,441)" d="m0 0h7l4 5v12l-2-1-1-8-1-5-4-1-5 4h-2l1-4z" fill="#F561C7"/>
<path transform="translate(598,327)" d="m0 0h1l3 10 4 2 5-2 2-4 3 1-3 6-3 2-8-1-3-4-1-3z" fill="#F561C7"/>
<path transform="translate(285,332)" d="m0 0h3v5l-4 3-5-1-1-4 2-2z" fill="#070608"/>
<path transform="translate(235,324)" d="m0 0h6l3 4v2h-12l2-5z" fill="#070608"/>
<path transform="translate(714,322)" d="m0 0 4 2-1 9v9l-3-1z" fill="#F563C7"/>
<path transform="translate(51,324)" d="m0 0 7 1 2 5h-12l2-5z" fill="#070608"/>
<path transform="translate(650,622)" d="m0 0 7 1 1 5h-11l1-4z" fill="#070608"/>
<path transform="translate(1317,563)" d="m0 0h6l2 2v4h-10l-1-2z" fill="#070608"/>
<path transform="translate(1295,563)" d="m0 0h5l3 5-1 1h-10l-1-2z" fill="#070608"/>
<path transform="translate(1226,563)" d="m0 0h5l3 4v2h-11l1-5z" fill="#070608"/>
<path transform="translate(788,87)" d="m0 0 7 1 1 5h-11l1-4z" fill="#070608"/>
<path transform="translate(949,563)" d="m0 0 7 1 1 5h-11l2-5z" fill="#070608"/>
<path transform="translate(650,563)" d="m0 0h5l3 3v3h-11l1-4z" fill="#070608"/>
<path transform="translate(1157,452)" d="m0 0h6l-1 5-3 2-5-1-1-4z" fill="#070608"/>
<path transform="translate(426,441)" d="m0 0 5 1 1 1v18l-3-2v-10l-1-5h-3z" fill="#F561C7"/>
<path transform="translate(1456,28)" d="m0 0h5l3 4v2h-11l1-5z" fill="#070608"/>
<path transform="translate(880,563)" d="m0 0 7 1 1 5h-10l-1-2z" fill="#070608"/>
<path transform="translate(765,563)" d="m0 0 7 1 1 5h-10l-1-2z" fill="#070608"/>
<path transform="translate(489,499)" d="m0 0 2 3 4 9 1 4 3 1v4l-4-1-5-12-2-5z" fill="#F561C7"/>
<path transform="translate(277,434)" d="m0 0 8 1 2 4v20h-1l-2-22h-7z" fill="#F561C7"/>
<path transform="translate(620,330)" d="m0 0 2 4 2 1 1 4h6l3-3 2-3 1 4-5 5h-6l-4-3z" fill="#F563C8"/>
<path transform="translate(286,155)" d="m0 0 2 1-1 5-6 2-3-2 1-4z" fill="#070608"/>
<path transform="translate(1042,28)" d="m0 0h5l2 2v4h-10l1-5z" fill="#070608"/>
<path transform="translate(1114,630)" d="m0 0h3l-1 5-2 2h-6l-1-4 2-2z" fill="#070608"/>
<path transform="translate(1226,622)" d="m0 0h5l2 2v4h-10l1-5z" fill="#070608"/>
<path transform="translate(260,511)" d="m0 0h5l-1 5-3 2-5-1-1-4z" fill="#070608"/>
<path transform="translate(1783,155)" d="m0 0h1v5l-4 3-5-1v-5z" fill="#070608"/>
<path transform="translate(1e3 155)" d="m0 0 2 1-2 5-3 2-4-1-1-4 3-2z" fill="#070608"/>
<path transform="translate(1688,36)" d="m0 0h4l-1 6-7 1-2-4z" fill="#070608"/>
<path transform="translate(1183,630)" d="m0 0h3l-2 6-1 1h-6l-1-4 2-2z" fill="#070608"/>
<path transform="translate(575,631)" d="m0 0h17v3h-17z" fill="#FEFEFE"/>
<path transform="translate(575,622)" d="m0 0h17v3h-17z" fill="#FEFEFE"/>
<path transform="translate(375,619)" d="m0 0 6 1 3 3 1 3-4-1v-2l-6-1-3 1-1 3h-2l-1 2 1-5 3-3z" fill="#EB5DBF"/>
<path transform="translate(552,572)" d="m0 0h17v3h-17z" fill="#FEFEFE"/>
<path transform="translate(423,570)" d="m0 0 5 1 2 1v6l-4 3h-6l1-3 6-2v-2l-7-2z" fill="#F561C7"/>
<path transform="translate(529,501)" d="m0 0h3v2l-3 3h2v14h-3v-18z" fill="#F564C8"/>
<path transform="translate(575,503)" d="m0 0h17v3h-17z" fill="#FEFEFE"/>
<path transform="translate(460,444)" d="m0 0h17v3h-17z" fill="#FEFEFE"/>
<path transform="translate(1622,214)" d="m0 0h1v5l-5 3-4-1v-5z" fill="#070608"/>
<path transform="translate(950,206)" d="m0 0 5 1 2 2v3h-11l2-5z" fill="#070608"/>
<path transform="translate(425,155)" d="m0 0 1 4-2 3-5 1-3-3 1-3z" fill="#070608"/>
<path transform="translate(1572,147)" d="m0 0 5 1 2 5h-11l1-4z" fill="#070608"/>
<path transform="translate(1643,36)" d="m0 0h3l-1 5-2 2h-5l-2-4 2-2z" fill="#070608"/>
<path transform="translate(999,36)" d="m0 0h3l-2 6-7 1-1-5z" fill="#070608"/>
<path transform="translate(861,36)" d="m0 0 3 1-2 5-1 1h-6l-1-5z" fill="#070608"/>
<path transform="translate(492,36)" d="m0 0h3l-1 6-7 1-2-4z" fill="#070608"/>
<path transform="translate(308,36)" d="m0 0h3l-1 5-2 2h-5l-2-4 2-2z" fill="#070608"/>
<path transform="translate(1734,36)" d="m0 0h4v5l-3 2h-5l-1-5z" fill="#070608"/>
<path transform="translate(813,23)" d="m0 0 2 1 2 7v4h-7z" fill="#070608"/>
<path transform="translate(445,23)" d="m0 0 2 3 2 9h-7l1-7z" fill="#070608"/>
<path transform="translate(261,23)" d="m0 0 2 3 2 9h-7l1-8z" fill="#070608"/>
<path transform="translate(447,629)" d="m0 0 6 2v6l-5 3h-5l1-3 6-2v-2l-7-2z" fill="#F561C7"/>
<path transform="translate(552,563)" d="m0 0h16l1 3h-17z" fill="#FEFEFE"/>
<path transform="translate(973,511)" d="m0 0h5l-1 5-2 2-6-1 1-5z" fill="#070608"/>
<path transform="translate(576,511)" d="m0 0h16v3h-17z" fill="#FEFEFE"/>
<path transform="translate(1549,206)" d="m0 0 5 1 2 5h-11l2-5z" fill="#070608"/>
<path transform="translate(699,36)" d="m0 0h3v5l-3 2h-5l-1-5z" fill="#070608"/>
<path transform="translate(354,36)" d="m0 0h3l-1 6-7 1-1-5z" fill="#070608"/>
<path transform="translate(541,619)" d="m0 0 5 1 1 4v15h-2l-1-17h-3z" fill="#F561C7"/>
<path transform="translate(541,500)" d="m0 0 5 1 1 4v15l-2-1-1-13-1-3h-3z" fill="#F561C7"/>
<path transform="translate(461,452)" d="m0 0h15l1 3h-17z" fill="#FEFEFE"/>
<path transform="translate(602,315)" d="m0 0h9l4 5v3l-3-1-2-4-7-1v2h-2v2l-3 1v-3h2z" fill="#F564C8"/>
<path transform="translate(1342,206)" d="m0 0 5 1 1 5h-10l1-4z" fill="#070608"/>
<path transform="translate(606,201)" d="m0 0 2 2 2 10h-7l2-10z" fill="#070608"/>
<path transform="translate(261,201)" d="m0 0 2 3 2 9h-7l1-7z" fill="#070608"/>
<path transform="translate(882,147)" d="m0 0 5 2 1 4h-11l2-5z" fill="#070608"/>
<path transform="translate(583,147)" d="m0 0 5 2 1 4h-11l2-5z" fill="#070608"/>
<path transform="translate(1311,145)" d="m0 0 5 1-2 4-1 15-3-1z" fill="#F564C8"/>
<path transform="translate(907,36)" d="m0 0h2v5l-3 2h-5l-1-5z" fill="#070608"/>
<path transform="translate(538,36)" d="m0 0h3l-1 6-7 1-1-5z" fill="#070608"/>
<path transform="translate(528,620)" d="m0 0 4 2-2 1 1 2v14l-3-1z" fill="#F561C7"/>
<path transform="translate(520,624)" d="m0 0h1v12h-2l-1-6-9 2-2-2 9-2z" fill="#F561C7"/>
<path transform="translate(304,503)" d="m0 0h7l2 5h-11l1-4z" fill="#070608"/>
<path transform="translate(498,493)" d="m0 0h2v10l-1 11-2-3v-17z" fill="#F561C7"/>
<path transform="translate(655,322)" d="m0 0h6l1 4v15l-2 1-1-18h-4z" fill="#F561C7"/>
<path transform="translate(1064,215)" d="m0 0h7l-2 5-5 2-3-2 1-4z" fill="#070608"/>
<path transform="translate(834,156)" d="m0 0h6l-1 5-6 2-2-2 1-4z" fill="#070608"/>
<path transform="translate(719,156)" d="m0 0h6l-1 5-6 2-2-2 1-4z" fill="#070608"/>
<path transform="translate(608,36)" d="m0 0h2l-1 6-7 1-1-5z" fill="#070608"/>
<path transform="translate(497,613)" d="m0 0h3l-1 21-2-3z" fill="#F561C7"/>
<path transform="translate(672,444)" d="m0 0h7l2 5h-11z" fill="#070608"/>
<path transform="translate(557,444)" d="m0 0h7l2 5h-11z" fill="#070608"/>
<path transform="translate(813,147)" d="m0 0 5 2 1 4h-11l3-5z" fill="#070608"/>
<path transform="translate(605,88)" d="m0 0h3v10l-4 1-1-7z" fill="#070608"/>
<path transform="translate(880,503)" d="m0 0h6l2 2v3h-11l2-4z" fill="#070608"/>
<path transform="translate(949,444)" d="m0 0h6l2 2v3h-11l2-4z" fill="#070608"/>
<path transform="translate(0,325)" d="m0 0 4 4v8l-4 3z" fill="#878788"/>
<path transform="translate(1158,147)" d="m0 0 5 2 1 4h-10l1-4z" fill="#070608"/>
<path transform="translate(1273,29)" d="m0 0h3v8l-2 3-3-1v-7z" fill="#070608"/>
<path transform="translate(235,503)" d="m0 0h6l3 5h-11l1-4z" fill="#070608"/>
<path transform="translate(373,500)" d="m0 0h7l5 5-2 2-5-4v-2h-3v2h-3l-2 4-2 2 1-5z" fill="#F561C7"/>
<path transform="translate(972,444)" d="m0 0h6l2 5h-11l2-4z" fill="#070608"/>
<path transform="translate(1388,148)" d="m0 0 3 1v8l-1 2h-3l-1-7z" fill="#070608"/>
<path transform="translate(446,570)" d="m0 0 5 1 2 2v5l-4 3h-6l1-3 6-2v-3h-3z" fill="#F561C7"/>
<path transform="translate(258,441)" d="m0 0h7l4 3-1 4-3-3-5-3v2h-3l-2 4-2 1 2-5z" fill="#F561C7"/>
<path transform="translate(444,509)" d="m0 0 6 1 3 2v6l-3 2h-4l1-2 3-1-1-4-4-2z" fill="#EF5EC2"/>
<path transform="translate(1069,493)" d="m0 0h3v7l-2 6-2-1v-11z" fill="#FEFEFE"/>
<path transform="translate(0,672)" d="m0 0 4 3v7l-2 3h-2z" fill="#A5A5A6"/>
<path transform="translate(505,561)" d="m0 0 5 1-2 1-1 3v15l-2-2z" fill="#F564C8"/>
<path transform="translate(0,267)" d="m0 0 4 4v6l-4 4z" fill="#9F9FA0"/>
<path transform="translate(511,619)" d="m0 0 7 1 2 4-9-1h-2v2h-3l2-4z" fill="#F561C7"/>
<path transform="translate(603,612)" d="m0 0 2 1v12h-3l-1-12z" fill="#FEFEFE"/>
<path transform="translate(514,565)" d="m0 0 2 1v14h-3v-13z" fill="#F561C7"/>
<path transform="translate(538,503)" d="m0 0h1v16l-3 1v-13h2z" fill="#F561C7"/>
<path transform="translate(423,444)" d="m0 0 2 1-1 15-3 1v-11z" fill="#F564C8"/>
<path transform="translate(487,434)" d="m0 0h3v12h-3l-1-11z" fill="#FEFEFE"/>
<path transform="translate(691,334)" d="m0 0 2 1v2l5 2 5-2 2-3 1 5-5 3h-6l-4-5z" fill="#F568C9"/>
<path transform="translate(538,622)" d="m0 0h1v16h-3v-11z" fill="#F561C7"/>
<path transform="translate(609,612)" d="m0 0 3 1-1 11-3 1v-12z" fill="#FEFEFE"/>
<path transform="translate(602,493)" d="m0 0h3v12h-3l-1-11z" fill="#FEFEFE"/>
<path transform="translate(350,441)" d="m0 0h6l5 4v2l-4-1-3-2-7 2v-3z" fill="#EF5EC2"/>
<path transform="translate(473,630)" d="m0 0 3 3-1 5-4 2h-5l1-3 5-1z" fill="#F561C7"/>
<path transform="translate(585,554)" d="m0 0h4l-1 12h-3z" fill="#FEFEFE"/>
<path transform="translate(0,448)" d="m0 0 4 2v7l-4 3z" fill="#8C8B8C"/>
<path transform="translate(440,561)" d="m0 0h10l3 5-4-1-1-1h-8l-1 2-1-2z" fill="#F561C7"/>
<path transform="translate(510,500)" d="m0 0h7l3 3-2 2v-2h-6l-4 3h-2l2-5z" fill="#F561C7"/>
<path transform="translate(1062,493)" d="m0 0h3v13l-3-1z" fill="#FEFEFE"/>
<path transform="translate(608,493)" d="m0 0 4 1-1 11h-3z" fill="#FEFEFE"/>
<path transform="translate(414,442)" d="m0 0h3v2l-2 1 1 15-3 1v-18z" fill="#F561C7"/>
<path transform="translate(0,79)" d="m0 0 3 1 1 2v6l-4 3z" fill="#828283"/>
<path transform="translate(1246,19)" d="m0 0h4v11l-3 1z" fill="#51F07B"/>
<path transform="translate(471,510)" d="m0 0 4 1 2 5-4 4h-5l-1-2 5-1 2-4h-2z" fill="#F561C7"/>
<path transform="translate(652,327)" d="m0 0 2 1v12l-2 2-1-1v-10z" fill="#F561C7"/>
<path transform="translate(418,561)" d="m0 0h9l3 5-4-1-5-2-6 3 1-4z" fill="#F561C7"/>
<path transform="translate(579,554)" d="m0 0h3v12h-3z" fill="#FEFEFE"/>
<path transform="translate(493,434)" d="m0 0h3v12h-3z" fill="#FEFEFE"/>
<path transform="translate(645,328)" d="m0 0h1v13h-3v-12z" fill="#F561C7"/>
<path transform="translate(1851,138)" d="m0 0h3v12h-3z" fill="#51F07B"/>
<path transform="translate(1845,138)" d="m0 0h3v12h-3z" fill="#51F07B"/>
<path transform="translate(1362,138)" d="m0 0h3v12h-3z" fill="#51F07B"/>
<path transform="translate(359,574)" d="m0 0h3l-2 5-4 2h-5l1-3 5-1z" fill="#F561C7"/>
<path transform="translate(0,497)" d="m0 0 2 2 1 10-2 6h-1z" fill="#1C1B1D"/>
<path transform="translate(358,452)" d="m0 0 3 1 1 4-4 4h-6v-2l5-1v-4z" fill="#F561C7"/>
<path transform="translate(1299,434)" d="m0 0h3v9l-1 4h-2z" fill="#FEFEFE"/>
<path transform="translate(1292,434)" d="m0 0h3v13h-2l-1-4z" fill="#FEFEFE"/>
<path transform="translate(738,336)" d="m0 0 6 3 5-2h3v2l-4 3h-7l-3-4z" fill="#F565C8"/>
<path transform="translate(2009,219)" d="m0 0 4 1-1 8-1 2h-2v-6l-1-4z" fill="#FEFEFE"/>
<path transform="translate(1779,219)" d="m0 0 4 1-1 8-1 2h-2v-6l-1-4z" fill="#FEFEFE"/>
<path transform="translate(858,219)" d="m0 0 4 1v6l-2 4h-2v-6l-1-4z" fill="#FEFEFE"/>
<path transform="translate(585,78)" d="m0 0 4 1-1 10h-3z" fill="#51F07B"/>
<path transform="translate(579,78)" d="m0 0h3v12l-3-1z" fill="#51F07B"/>
<path transform="translate(1782,19)" d="m0 0h3v12l-3-1z" fill="#51F07B"/>
<path transform="translate(923,627)" d="m0 0h11v3h-11z" fill="#51F07B"/>
<path transform="translate(1047,612)" d="m0 0 2 1v9l-1 3h-2v-12z" fill="#FEFEFE"/>
<path transform="translate(1040,612)" d="m0 0 2 1v12h-2l-1-3v-9z" fill="#FEFEFE"/>
<path transform="translate(1176,568)" d="m0 0h11v3h-11z" fill="#51F07B"/>
<path transform="translate(1369,553)" d="m0 0 2 1v9l-1 3h-2v-12z" fill="#FEFEFE"/>
<path transform="translate(1457,219)" d="m0 0 4 1-2 9-3 1 1-5-1-5z" fill="#FEFEFE"/>
<path transform="translate(559,219)" d="m0 0 4 1-1 7-3 3 1-6h-2z" fill="#FEFEFE"/>
<path transform="translate(1368,138)" d="m0 0h3v10l-1 2h-2z" fill="#51F07B"/>
<path transform="translate(766,41)" d="m0 0h4l-1 8-3 3v-6l-1-4z" fill="#FEFEFE"/>
<path transform="translate(1776,19)" d="m0 0h3v12h-2l-1-2z" fill="#51F07B"/>
<path transform="translate(382,633)" d="m0 0h3l-2 5-4 2h-5v-2l6-2z" fill="#F561C7"/>
<path transform="translate(716,627)" d="m0 0h11v3h-11z" fill="#51F07B"/>
<path transform="translate(831,568)" d="m0 0h11v3h-11z" fill="#51F07B"/>
<path transform="translate(466,561)" d="m0 0 3 3 3 7 1 3-2 3-4-10z" fill="#F561C7"/>
<path transform="translate(1361,554)" d="m0 0h3v12h-2l-1-3z" fill="#FEFEFE"/>
<path transform="translate(854,449)" d="m0 0h11v3h-11z" fill="#51F07B"/>
<path transform="translate(716,449)" d="m0 0h11v3h-11z" fill="#51F07B"/>
<path transform="translate(1226,219)" d="m0 0 4 1v6l-2 4h-2z" fill="#FEFEFE"/>
<path transform="translate(352,160)" d="m0 0 4 1-1 7-3 3 1-6h-2z" fill="#FEFEFE"/>
<path transform="translate(1115,78)" d="m0 0h3l-1 12h-2l-1-8z" fill="#51F07B"/>
<path transform="translate(1253,19)" d="m0 0h3v9l-1 3h-2z" fill="#51F07B"/>
<path transform="translate(921,732)" d="m0 0h8l2 2v3h-3v-2h-6z" fill="#51F07B"/>
<path transform="translate(566,634)" d="m0 0 3 1-4 4-7 1-2-2 1-3 1 2 5-1z" fill="#F56FCC"/>
<path transform="translate(762,508)" d="m0 0h11v3h-10z" fill="#51F07B"/>
<path transform="translate(647,508)" d="m0 0h11v3h-10z" fill="#51F07B"/>
<path transform="translate(335,452)" d="m0 0 3 1v6l-3 2h-6l3-2 3-3 1-2-3-1z" fill="#F561C7"/>
<path transform="translate(1199,449)" d="m0 0h11v3h-10z" fill="#51F07B"/>
<path transform="translate(1084,449)" d="m0 0h11v3h-10z" fill="#51F07B"/>
<path transform="translate(1108,78)" d="m0 0h3v12h-2l-1-4z" fill="#51F07B"/>
<path transform="translate(493,630)" d="m0 0 2 1 4 5 1 3-3 1-2-1-3-8z" fill="#F561C7"/>
<path transform="translate(327,441)" d="m0 0h6l4 3v3l-8-4-5 1z" fill="#F561C7"/>
<path transform="translate(650,161)" d="m0 0h5l-1 7-1 3h-2v-6z" fill="#FEFEFE"/>
<path transform="translate(927,160)" d="m0 0 4 1-1 8-1 2h-2z" fill="#FEFEFE"/>
<path transform="translate(397,41)" d="m0 0h4v7l-2 3-2-1v-4z" fill="#FEFEFE"/>
<path transform="translate(783,732)" d="m0 0h7l3 3v2h-3v-2h-6z" fill="#51F07B"/>
<path transform="translate(598,327)" d="m0 0h1l3 10 3 3-3 1-3-4-1-3z" fill="#F566C9"/>
<path transform="translate(460,554)" d="m0 0h4l1 3-1 2h-2l-1 9h-1z" fill="#EB5DBF"/>
<path transform="translate(465,500)" d="m0 0h6l-4 1v2h-3l-1 4-2 1v-5z" fill="#F561C7"/>
<path transform="translate(667,336)" d="m0 0h2l1 11h-3z" fill="#EB5DBF"/>
</svg>
