<?xml version="1.0" standalone="no"?>
<!DOCTYPE svg PUBLIC "-//W3C//DTD SVG 20010904//EN"
 "http://www.w3.org/TR/2001/REC-SVG-20010904/DTD/svg10.dtd">
<svg version="1.0" xmlns="http://www.w3.org/2000/svg"
 width="1453.000000pt" height="944.000000pt" viewBox="0 0 1453.000000 944.000000"
 preserveAspectRatio="xMidYMid meet">

<g transform="translate(0.000000,944.000000) scale(0.100000,-0.100000)"
fill="#000000" stroke="none">
<path d="M3790 7198 c0 -24 -9 -209 -20 -413 -75 -1397 -219 -4199 -216 -4202
3 -3 2819 -153 2879 -153 26 0 27 1 13 16 -22 22 -20 70 4 94 11 11 24 20 29
20 18 0 41 -32 41 -56 0 -20 -5 -24 -30 -24 -16 0 -30 -5 -30 -11 0 -7 10 -9
24 -5 25 6 44 -8 26 -19 -25 -16 -5 -25 54 -25 l64 0 7 66 c5 52 10 64 22 60
8 -3 21 -6 29 -6 8 0 14 -7 14 -15 0 -8 -6 -15 -14 -15 -17 0 -26 -21 -26 -60
0 -35 16 -40 129 -40 l84 0 -7 43 c-19 116 -19 130 -5 125 15 -5 26 -37 29
-88 2 -22 4 -27 7 -15 17 73 25 95 37 95 16 0 25 -30 27 -85 1 -38 2 -36 16
23 9 40 19 62 29 62 18 0 18 -6 -2 -86 -17 -65 -38 -90 -55 -63 -5 8 -9 27 -9
42 0 37 -16 26 -24 -17 -4 -19 -12 -37 -19 -39 -7 -3 21 -6 61 -6 l72 -1 0 65
c0 53 3 63 15 59 11 -5 15 -22 15 -64 0 -67 4 -70 86 -70 l55 0 -3 48 c-4 56
-21 59 -28 5 -5 -37 -6 -38 -45 -38 l-40 0 -6 50 c-4 28 -5 60 -2 72 6 25 33
32 33 8 0 -8 5 -15 10 -15 6 0 10 -7 10 -15 0 -8 -4 -15 -10 -15 -11 0 -13
-39 -4 -64 14 -36 24 -11 24 59 0 60 3 75 15 75 9 0 15 -10 15 -26 0 -20 4
-25 16 -20 29 11 44 -13 44 -69 0 -51 1 -53 31 -59 17 -3 55 -6 84 -6 l53 0 4
40 c4 48 -7 73 -22 50 -5 -8 -10 -30 -10 -47 0 -23 -5 -33 -15 -33 -17 0 -19
35 -9 114 5 31 11 46 21 46 11 0 14 -8 11 -29 -4 -26 -2 -28 15 -17 29 18 47
-15 40 -74 -5 -43 -4 -48 18 -53 13 -4 47 -7 75 -7 50 0 52 1 58 31 3 17 6 56
6 86 l0 55 38 -7 c33 -6 62 -27 62 -46 0 -4 -6 -14 -13 -21 -12 -11 -12 -16 0
-26 19 -18 16 -38 -9 -62 l-22 -20 45 0 c35 1 40 3 27 11 -21 12 -25 88 -6
107 27 27 78 1 78 -39 0 -15 -7 -19 -35 -19 -26 0 -33 -3 -29 -15 4 -10 14
-13 30 -9 28 7 32 -10 6 -25 -14 -9 -12 -10 15 -11 27 0 30 3 26 21 -5 18 -2
19 23 14 l29 -7 -29 24 c-39 33 -33 63 13 63 20 0 36 -6 39 -14 3 -10 -2 -12
-22 -7 -33 8 -34 -7 -1 -22 32 -15 34 -55 3 -70 -20 -9 -17 -11 26 -11 42 -1
47 1 34 11 -21 17 -31 107 -14 131 16 21 40 23 32 2 -3 -8 -1 -15 4 -15 6 0
10 -7 10 -15 0 -8 -4 -15 -10 -15 -5 0 -10 -16 -10 -35 0 -19 5 -35 11 -35 6
0 9 -7 5 -15 -3 -10 1 -15 12 -16 9 0 636 -33 1392 -73 756 -40 1376 -72 1377
-72 1 1 49 908 107 2016 59 1108 114 2156 123 2328 9 172 14 314 12 317 -5 4
-7051 375 -7132 375 l-47 0 0 -42z m2989 -565 c-1 -21 -3 -30 -6 -20 -2 9 -11
17 -18 17 -7 0 -16 -8 -18 -17 -4 -14 -5 -12 -6 5 -1 16 5 22 19 22 11 0 20 7
20 15 0 8 2 15 5 15 3 0 4 -17 4 -37z m299 -9 c2 -21 -2 -33 -12 -37 -21 -8
-39 19 -32 49 10 36 40 28 44 -12z m-248 1 c0 -18 -5 -25 -20 -25 -20 0 -28
28 -13 43 15 16 33 6 33 -18z m66 -8 c1 -25 1 -25 -3 -2 -6 34 -23 32 -24 -2
l-2 -28 -5 30 -5 30 -7 -25 -8 -25 -1 28 c-1 25 2 28 27 25 22 -2 27 -8 28
-31z m44 3 c0 -20 -5 -30 -15 -30 -15 0 -21 40 -8 53 14 15 23 6 23 -23z m296
12 c1 -7 0 -8 -3 -2 -10 20 -33 10 -33 -15 0 -31 25 -33 42 -5 14 21 38 27 38
9 0 -5 -4 -8 -9 -4 -13 7 -24 -12 -15 -26 4 -8 9 -7 15 2 6 10 9 10 9 2 0 -16
-23 -29 -28 -15 -2 7 -15 9 -33 5 -27 -5 -29 -3 -29 24 0 16 3 33 7 37 11 10
36 3 39 -12z m-123 -32 c3 8 8 22 10 30 3 8 6 0 6 -18 1 -27 -3 -33 -16 -30
-12 2 -19 13 -20 33 l-2 30 8 -30 c5 -20 10 -25 14 -15z m47 33 c0 -5 -5 -15
-10 -23 -8 -12 -10 -11 -10 8 0 12 5 22 10 22 6 0 10 -3 10 -7z m150 -53 c5 0
11 12 13 28 4 25 4 24 6 -6 1 -27 -2 -33 -16 -30 -11 2 -18 13 -19 28 -1 22 0
22 3 3 2 -13 8 -23 13 -23z m42 15 c-6 -34 -12 -32 -12 6 0 16 4 28 9 25 4 -3
6 -17 3 -31z m268 25 c0 -5 -6 -7 -14 -4 -15 6 -30 -22 -20 -38 3 -5 12 -7 20
-4 8 3 14 1 14 -4 0 -16 -37 -11 -44 6 -8 20 11 54 29 54 8 0 15 -4 15 -10z
m-230 -10 c-10 -6 -11 -10 -2 -10 6 0 12 -7 12 -15 0 -8 -8 -15 -17 -15 -15 0
-16 2 -3 10 10 6 11 10 3 10 -7 0 -13 7 -13 15 0 8 8 15 18 15 14 0 15 -2 2
-10z m58 -8 c2 -7 -3 -12 -12 -12 -9 0 -16 -5 -16 -11 0 -5 5 -7 10 -4 6 3 10
1 10 -4 0 -16 -20 -13 -26 4 -4 8 -3 22 0 31 7 17 27 15 34 -4z m38 6 c4 -7 3
-8 -4 -4 -7 4 -12 3 -12 -3 0 -5 6 -11 13 -14 10 -4 10 -7 0 -18 -11 -10 -15
-11 -25 0 -11 10 -9 11 7 5 16 -6 18 -5 8 7 -15 15 -17 39 -4 39 6 0 13 -5 17
-12z m254 -10 c0 -18 -2 -20 -9 -8 -6 8 -7 18 -5 22 9 14 14 9 14 -14z m-75
-18 c0 -13 -6 -25 -12 -27 -16 -6 -27 21 -19 43 9 23 31 11 31 -16z m49 14 c5
-14 4 -15 -8 -5 -12 10 -15 7 -19 -16 -4 -27 -4 -27 -6 5 -1 34 22 46 33 16z
m140 -24 c1 -16 -2 -30 -6 -30 -5 0 -8 17 -8 37 0 43 13 37 14 -7z m62 -16 c8
3 14 1 14 -4 0 -6 -9 -10 -20 -10 -17 0 -20 6 -18 38 l1 37 4 -33 c3 -24 8
-32 19 -28z m21 24 c-3 -7 -5 -2 -5 12 0 14 2 19 5 13 2 -7 2 -19 0 -25z
m-149 10 c9 -9 12 -9 12 0 0 7 7 12 15 12 8 0 15 -4 15 -10 0 -5 -6 -9 -12 -7
-7 1 -13 -5 -13 -13 0 -8 7 -14 15 -12 12 3 13 1 2 -10 -11 -11 -15 -10 -23 5
-6 9 -18 17 -27 17 -15 0 -15 -2 -2 -10 13 -8 12 -10 -2 -10 -10 0 -18 7 -18
15 0 8 8 15 18 16 14 0 14 2 -3 9 -14 6 -15 9 -4 9 8 1 20 -4 27 -11z m183 -7
c-9 -6 -10 -11 -2 -15 17 -11 13 -26 -6 -26 -15 0 -16 2 -3 10 10 6 11 10 3
10 -7 0 -13 7 -13 15 0 8 8 15 18 15 13 0 14 -2 3 -9z m-2537 -598 c15 -51 36
-158 36 -184 0 -16 5 -29 10 -29 6 0 10 7 10 15 0 8 14 58 30 110 l31 95 40 0
41 0 -7 -152 c-4 -84 -9 -156 -12 -160 -2 -5 -14 -8 -26 -8 -22 0 -22 1 -15
122 3 68 6 124 5 125 -1 1 -20 -54 -41 -123 -35 -109 -42 -124 -61 -124 -20 0
-24 10 -46 115 -27 132 -37 128 -38 -12 -1 -92 -1 -93 -26 -93 -24 0 -25 2
-25 63 0 34 3 106 7 160 l6 97 38 0 c27 0 39 -5 43 -17z m703 -73 c-6 -25 -3
-30 13 -30 15 0 20 -7 20 -25 0 -18 -5 -25 -19 -25 -16 0 -19 -10 -23 -62 -5
-61 4 -94 23 -82 5 3 9 -6 9 -20 0 -22 -5 -26 -28 -26 -45 0 -52 16 -52 112 0
52 -4 88 -10 88 -5 0 -10 12 -10 26 0 14 4 23 10 19 6 -4 13 7 16 24 5 25 12
31 32 31 22 0 24 -3 19 -30z m683 -35 l0 -55 25 16 c21 14 31 15 51 6 37 -17
46 -54 38 -154 -6 -86 -7 -88 -32 -88 l-25 0 6 77 c6 83 -3 113 -33 113 -29 0
-40 -31 -40 -115 0 -73 -1 -76 -22 -73 -29 4 -32 26 -23 196 7 131 7 132 31
132 22 0 24 -4 24 -55z m-120 5 c0 -20 5 -30 15 -30 9 0 15 -9 15 -25 0 -18
-5 -25 -20 -25 -18 0 -20 -7 -20 -70 0 -56 3 -70 15 -70 9 0 15 -9 15 -25 0
-21 -5 -25 -28 -25 -45 0 -52 16 -52 112 0 52 -4 88 -10 88 -5 0 -10 11 -10
25 0 16 6 25 15 25 9 0 15 9 15 25 0 20 5 25 25 25 21 0 25 -5 25 -30z m-887
-11 c17 -24 19 -36 12 -118 -7 -88 -8 -91 -32 -91 -20 0 -24 4 -19 17 6 16 6
16 -12 0 -36 -33 -100 -13 -103 31 -4 57 22 92 70 92 35 0 55 14 48 34 -9 24
-35 31 -55 14 -18 -15 -52 -13 -52 3 0 5 9 18 21 30 30 30 95 23 122 -12z
m198 0 c11 -11 18 -26 16 -32 -6 -19 -37 -20 -51 -2 -9 12 -19 15 -34 11 -36
-12 -25 -35 25 -57 26 -11 51 -26 55 -32 14 -22 8 -63 -12 -85 -21 -22 -34
-26 -80 -23 -24 2 -70 42 -70 62 0 15 46 10 60 -6 17 -20 54 -15 58 8 3 12 -9
22 -42 36 -67 29 -84 82 -40 125 23 23 89 21 115 -5z m308 -4 c31 -15 51 -59
51 -107 l0 -30 -65 7 -65 7 0 -25 c0 -35 32 -52 63 -35 20 11 46 12 56 2 3 -2
-6 -15 -19 -29 -36 -38 -90 -35 -125 7 -25 29 -27 38 -23 96 4 58 8 68 36 93
37 33 51 35 91 14z m141 -15 c0 -20 0 -20 21 1 19 19 41 23 40 6 -1 -4 -1 -16
-1 -27 0 -13 -7 -20 -19 -20 -31 0 -43 -26 -48 -110 -6 -77 -7 -80 -31 -80
l-25 0 6 83 c4 45 7 101 7 125 0 38 2 42 25 42 18 0 25 -5 25 -20z m1720 8 c0
-18 -12 -33 -32 -41 -25 -9 -23 -37 2 -37 15 0 20 -7 20 -25 0 -18 -5 -25 -19
-25 -24 0 -31 -26 -31 -124 0 -67 -2 -77 -16 -72 -9 3 -20 6 -26 6 -6 0 -9 35
-6 95 3 85 1 95 -14 95 -13 0 -18 8 -18 25 0 18 5 25 20 25 14 0 20 7 20 23 0
39 27 67 66 67 21 0 34 -5 34 -12z m-483 -28 c-6 -25 -3 -30 13 -30 15 0 20
-7 20 -25 0 -18 -5 -25 -19 -25 -17 0 -20 -9 -23 -67 -2 -54 0 -68 15 -77 18
-12 23 -41 7 -51 -18 -11 -57 7 -68 30 -7 14 -9 52 -5 94 5 58 3 72 -9 76 -16
6 -14 45 2 45 4 0 10 14 14 30 4 24 11 30 32 30 24 0 26 -3 21 -30z m-569 -26
c16 -18 22 -38 22 -71 l0 -46 -65 6 c-71 7 -78 0 -49 -41 18 -26 31 -28 54 -7
12 11 24 13 39 7 l22 -8 -22 -27 c-18 -24 -27 -28 -67 -25 -34 2 -49 9 -64 28
-28 39 -33 93 -13 145 28 76 94 93 143 39z m1950 -5 c3 -26 -19 -46 -39 -33
-11 6 -12 48 -2 58 15 14 38 0 41 -25z m-1668 3 c24 -19 26 -33 22 -159 -2
-71 -3 -73 -27 -73 -17 0 -25 6 -25 17 0 15 -1 15 -18 0 -60 -54 -136 39 -84
102 10 12 34 24 57 28 43 6 56 18 48 40 -6 16 -45 17 -60 2 -15 -15 -43 -4
-43 15 0 41 90 61 130 28z m120 -14 l0 -22 16 22 c23 34 54 29 54 -8 0 -25 -4
-30 -25 -30 -30 0 -45 -26 -45 -78 0 -75 -10 -102 -37 -102 -23 0 -25 3 -19
31 3 17 6 71 6 120 0 88 0 89 25 89 19 0 25 -5 25 -22z m441 -8 c33 -18 52
-68 47 -128 -4 -47 -10 -60 -37 -84 -52 -46 -109 -32 -136 36 -43 106 39 222
126 176z m359 -36 l0 -25 24 28 c21 24 26 26 50 15 14 -6 26 -18 26 -27 0 -21
13 -19 28 5 17 28 66 27 86 -2 17 -24 20 -70 10 -167 -6 -56 -9 -61 -31 -61
-24 0 -24 1 -21 91 3 78 0 93 -14 102 -30 20 -43 -7 -47 -98 -3 -83 -4 -85
-28 -85 l-26 0 5 83 c6 95 3 107 -22 107 -28 0 -35 -17 -40 -105 -4 -72 -7
-80 -25 -80 -18 0 -20 8 -23 80 -5 114 4 165 29 165 14 0 19 -7 19 -26z m326
-72 c-8 -91 -3 -112 30 -112 32 0 44 32 44 121 0 68 3 75 34 63 18 -7 21 -72
10 -183 -6 -56 -9 -61 -30 -61 -15 0 -24 6 -24 16 0 14 -2 14 -22 0 -31 -22
-45 -20 -73 9 -27 26 -31 67 -19 173 6 47 9 52 32 52 l25 0 -7 -78z m299 43
c14 -13 25 -29 25 -35 0 -13 -47 -13 -55 0 -8 13 -42 13 -50 0 -10 -15 11 -37
43 -45 64 -16 82 -75 37 -120 -33 -34 -87 -34 -121 0 -14 14 -24 31 -21 38 6
19 39 21 49 3 10 -18 53 -22 63 -6 10 16 -13 38 -46 45 -33 8 -59 39 -59 73 0
33 43 72 80 72 19 0 40 -9 55 -25z m117 -62 c-1 -43 -5 -97 -8 -120 -5 -38 -8
-43 -31 -43 -23 0 -25 3 -19 31 3 17 6 71 6 120 l0 89 28 0 27 0 -3 -77z m178
57 c10 -5 22 -23 28 -39 9 -26 8 -30 -11 -35 -14 -3 -25 1 -34 14 -18 25 -49
26 -63 1 -15 -30 -12 -97 6 -115 21 -21 30 -20 48 5 15 21 46 23 53 3 2 -7 -7
-24 -20 -40 -31 -36 -87 -39 -120 -6 -19 19 -22 33 -22 96 0 65 3 78 24 100
26 28 76 35 111 16z m-3124 -298 c1 -7 0 -8 -3 -2 -11 22 -33 9 -33 -20 0 -29
22 -42 33 -20 3 6 4 5 3 -2 -1 -7 -12 -14 -24 -16 -19 -3 -22 1 -22 31 0 18 3
37 7 41 11 10 36 3 39 -12z m99 -22 c-3 -5 2 -11 12 -11 17 -1 17 -2 1 -6 -10
-2 -18 -9 -18 -15 0 -6 8 -7 18 -3 13 5 14 3 5 -6 -6 -6 -16 -8 -22 -5 -12 8
-15 39 -4 49 10 10 15 8 8 -3z m72 -27 c-3 -10 -5 -4 -5 12 0 17 2 24 5 18 2
-7 2 -21 0 -30z m49 4 c1 -25 1 -25 -3 -2 -6 33 -21 32 -26 -2 -4 -26 -4 -25
-6 5 -1 27 2 33 17 30 11 -2 17 -13 18 -31z m-163 3 c3 -11 1 -18 -4 -14 -5 3
-9 12 -9 20 0 20 7 17 13 -6z m322 -11 c0 -15 -7 -25 -17 -27 -10 -2 -18 1
-18 7 0 6 7 8 15 5 11 -4 15 0 15 16 0 16 -4 20 -16 16 -9 -3 -12 -2 -9 5 11
17 30 4 30 -22z m22 -16 c-3 -10 -5 -2 -5 17 0 19 2 27 5 18 2 -10 2 -26 0
-35z m33 17 c0 -16 -4 -30 -8 -30 -5 0 -7 14 -4 30 2 17 6 30 8 30 2 0 4 -13
4 -30z m32 18 c-5 -7 -12 -24 -15 -38 -4 -22 -4 -21 -6 7 -1 26 6 38 28 42 2
1 -1 -5 -7 -11z m365 -40 c-2 -13 -4 -5 -4 17 -1 22 1 32 4 23 2 -10 2 -28 0
-40z m-810 20 c-3 -8 -6 -5 -6 6 -1 11 2 17 5 13 3 -3 4 -12 1 -19z m220 -10
c-3 -7 -5 -2 -5 12 0 14 2 19 5 13 2 -7 2 -19 0 -25z m43 -8 c5 0 11 5 13 10
3 6 4 5 3 -2 -4 -21 -31 -15 -32 7 -1 15 0 16 3 3 3 -10 8 -18 13 -18z m260
30 c0 -5 -7 -7 -15 -4 -11 4 -15 0 -15 -16 0 -17 4 -21 18 -15 13 5 14 3 5 -6
-6 -6 -16 -8 -22 -5 -12 8 -15 39 -4 49 10 10 33 8 33 -3z m48 -23 c2 -19 -1
-27 -13 -27 -19 0 -30 24 -21 46 9 23 31 11 34 -19z m79 -8 l1 -34 -7 35 c-7
35 -14 30 -24 -15 -3 -12 -5 -7 -6 13 -1 22 -5 31 -13 26 -6 -4 -8 -3 -5 3 3
5 16 9 29 8 19 -1 23 -8 25 -36z m53 21 c0 -5 -7 -7 -15 -4 -11 4 -15 0 -15
-16 0 -16 4 -20 15 -16 20 7 19 4 -5 -17 -20 -16 -20 -16 -20 23 0 33 3 40 20
40 11 0 20 -4 20 -10z m80 6 c0 -2 -7 -7 -16 -10 -8 -3 -12 -2 -9 4 6 10 25
14 25 6z m60 -36 c0 -16 -2 -30 -4 -30 -2 0 -6 14 -8 30 -3 17 -1 30 4 30 4 0
8 -13 8 -30z m48 12 c2 -7 -3 -12 -12 -12 -9 0 -16 -5 -16 -11 0 -6 7 -8 18
-4 13 5 14 3 5 -6 -14 -14 -33 -3 -33 20 0 31 28 41 38 13z m51 -14 c-2 -31
-2 -31 -6 -5 -2 15 -8 27 -13 27 -5 0 -11 -12 -13 -27 -4 -26 -4 -26 -6 5 -1
26 3 32 19 32 16 0 20 -6 19 -32z m46 22 c3 -6 -1 -7 -9 -4 -9 3 -16 2 -16 -4
0 -5 7 -12 15 -16 8 -3 15 -10 15 -16 0 -6 -9 -2 -21 9 -12 11 -18 24 -14 30
8 14 22 14 30 1z m22 -42 c-2 -13 -4 -5 -4 17 -1 22 1 32 4 23 2 -10 2 -28 0
-40z m-420 20 c-3 -8 -6 -5 -6 6 -1 11 2 17 5 13 3 -3 4 -12 1 -19z m203 12
c0 -5 -12 -10 -27 -9 l-28 1 25 8 c14 4 26 8 28 9 1 1 2 -3 2 -9z m318 -11 c3
-11 2 -11 -7 1 -10 13 -12 13 -21 0 -5 -8 -10 -10 -10 -4 0 27 31 30 38 3z
m99 -20 l1 -34 -7 35 c-7 34 -10 32 -24 -10 -3 -8 -6 -2 -6 13 -1 19 -5 26
-13 21 -6 -4 -8 -3 -5 3 3 5 16 9 29 8 19 -1 23 -8 25 -36z m33 -19 c5 0 11
12 13 28 4 25 4 24 6 -6 1 -27 -2 -33 -16 -30 -11 2 -18 13 -19 28 -1 22 0 22
3 3 2 -13 8 -23 13 -23z m65 40 c3 -6 -1 -7 -9 -4 -18 7 -21 14 -7 14 6 0 13
-4 16 -10z m22 -37 c-3 -10 -5 -2 -5 17 0 19 2 27 5 18 2 -10 2 -26 0 -35z
m123 33 c0 -2 -7 -6 -15 -10 -8 -3 -15 -1 -15 4 0 6 7 10 15 10 8 0 15 -2 15
-4z m55 -27 c0 -15 -7 -25 -17 -27 -10 -2 -18 1 -18 7 0 6 7 8 15 5 11 -4 15
0 15 16 0 16 -4 20 -16 16 -9 -3 -12 -2 -9 5 11 17 30 4 30 -22z m22 -16 c-3
-10 -5 -2 -5 17 0 19 2 27 5 18 2 -10 2 -26 0 -35z m33 17 c0 -16 -4 -30 -8
-30 -5 0 -7 14 -4 30 2 17 6 30 8 30 2 0 4 -13 4 -30z m360 -10 c0 -22 -3 -40
-8 -40 -4 0 -6 18 -4 40 2 22 6 40 8 40 2 0 4 -18 4 -40z m-870 21 c0 -6 -4
-13 -10 -16 -5 -3 -10 1 -10 9 0 9 5 16 10 16 6 0 10 -4 10 -9z m260 -11 c0
-16 -22 -22 -33 -11 -9 9 -7 10 8 5 18 -7 19 -6 6 9 -12 15 -12 17 3 11 9 -3
16 -10 16 -14z m37 -12 c-3 -7 -5 -2 -5 12 0 14 2 19 5 13 2 -7 2 -19 0 -25z
m235 2 c-2 -16 -6 -30 -8 -30 -2 0 -4 14 -4 30 0 17 4 30 8 30 5 0 7 -13 4
-30z m104 12 c1 -7 0 -8 -3 -2 -8 17 -23 11 -23 -9 0 -11 8 -22 18 -24 16 -4
16 -5 -1 -6 -20 -1 -32 22 -23 45 7 17 28 15 32 -4z m49 8 c3 -6 -1 -7 -9 -4
-9 3 -16 2 -16 -4 0 -5 7 -12 15 -16 23 -8 18 -26 -7 -25 -19 1 -19 2 -5 6 17
4 17 5 1 17 -9 7 -14 18 -10 24 9 15 23 15 31 2z m235 -6 c0 -8 -5 -12 -10 -9
-6 4 -8 11 -5 16 9 14 15 11 15 -7z m211 -21 c-4 -28 -6 -32 -9 -15 -3 22 3
52 11 52 1 0 1 -17 -2 -37z m-1081 11 c0 -2 -7 -4 -15 -4 -8 0 -15 4 -15 10 0
5 7 7 15 4 8 -4 15 -8 15 -10z m710 -14 c0 -19 -5 -30 -14 -30 -25 0 -29 20
-10 40 25 24 24 25 24 -10z m-174 9 c11 -18 -14 -35 -28 -20 -11 10 -10 11 5
6 19 -8 24 10 5 18 -10 4 -10 6 -1 6 6 1 15 -4 19 -10z m411 5 c-3 -3 -12 -4
-19 -1 -8 3 -5 6 6 6 11 1 17 -2 13 -5z m53 2 c0 -2 -7 -6 -15 -10 -8 -3 -15
-1 -15 4 0 6 7 10 15 10 8 0 15 -2 15 -4z m46 -8 c4 -7 3 -8 -4 -4 -7 4 -12 2
-12 -3 0 -6 5 -11 10 -11 13 0 13 -27 1 -35 -5 -3 -13 0 -17 6 -4 8 -3 9 4 5
15 -9 16 6 1 21 -6 6 -8 16 -5 22 9 14 13 14 22 -1z m-696 -14 c0 -2 -7 -4
-15 -4 -8 0 -15 4 -15 10 0 5 7 7 15 4 8 -4 15 -8 15 -10z m777 10 c-3 -3 -12
-4 -19 -1 -8 3 -5 6 6 6 11 1 17 -2 13 -5z m37 -9 c-4 -8 -8 -15 -10 -15 -2 0
-4 7 -4 15 0 8 4 15 10 15 5 0 7 -7 4 -15z m23 -32 c-3 -10 -5 -2 -5 17 0 19
2 27 5 18 2 -10 2 -26 0 -35z m31 6 c-3 -20 -5 -19 -9 9 -3 20 -2 29 4 23 5
-5 7 -19 5 -32z m30 5 c-3 -14 -5 -12 -10 9 -3 19 -2 25 4 19 6 -6 8 -18 6
-28z m-521 4 c-3 -8 -6 -5 -6 6 -1 11 2 17 5 13 3 -3 4 -12 1 -19z m160 -10
c-3 -7 -5 -2 -5 12 0 14 2 19 5 13 2 -7 2 -19 0 -25z m223 -8 c5 0 14 8 19 18
6 9 10 13 11 7 0 -5 -4 -16 -9 -24 -12 -18 -41 -6 -40 16 1 17 2 17 6 1 2 -10
8 -18 13 -18z m-160 8 c0 -4 -6 -8 -14 -8 -8 0 -17 4 -20 8 -2 4 4 8 15 8 10
0 19 -4 19 -8z m-2020 -48 c0 -24 -18 -36 -33 -21 -9 9 -7 10 7 5 16 -6 18 -4
14 19 -3 15 -1 24 3 21 5 -3 9 -14 9 -24z m30 -20 c5 0 11 12 13 28 4 25 4 24
6 -6 1 -27 -2 -33 -16 -30 -11 2 -18 13 -19 28 -1 22 0 22 3 3 2 -13 8 -23 13
-23z m52 38 c-5 -7 -12 -22 -15 -33 -5 -20 -5 -20 -6 1 0 11 4 25 11 32 16 16
23 15 10 0z m345 -40 c-2 -13 -4 -5 -4 17 -1 22 1 32 4 23 2 -10 2 -28 0 -40z
m-300 -5 c-3 -10 -5 -2 -5 17 0 19 2 27 5 18 2 -10 2 -26 0 -35z m85 17 c3
-16 1 -30 -4 -30 -4 0 -8 14 -8 30 0 17 2 30 4 30 2 0 6 -13 8 -30z m25 -7
c-3 -10 -5 -4 -5 12 0 17 2 24 5 18 2 -7 2 -21 0 -30z m33 27 c-13 -9 -13 -11
0 -20 9 -6 10 -10 3 -10 -6 0 -15 5 -18 10 -8 13 3 30 18 30 7 0 6 -4 -3 -10z
m-339 -34 c-14 -36 -22 -33 -9 5 6 16 12 28 14 26 3 -2 0 -16 -5 -31z m226 -3
c-3 -10 -5 -4 -5 12 0 17 2 24 5 18 2 -7 2 -21 0 -30z m248 28 c3 -5 0 -13 -6
-17 -7 -4 -9 -3 -5 4 3 6 -2 13 -11 15 -16 4 -16 5 -1 6 9 0 19 -3 23 -8z
m125 -26 c0 -19 -27 -38 -35 -25 -4 6 -1 9 7 8 7 -2 13 6 13 17 0 11 -6 19
-13 17 -8 -1 -11 2 -7 8 8 13 35 -6 35 -25z m22 -5 c3 -16 1 -30 -4 -30 -4 0
-8 14 -8 30 0 17 2 30 4 30 2 0 6 -13 8 -30z m25 -17 c-3 -10 -5 -2 -5 17 0
19 2 27 5 18 2 -10 2 -26 0 -35z m37 39 c-7 -4 -14 -18 -17 -32 -4 -21 -4 -20
-6 8 -1 24 3 32 17 32 11 0 13 -3 6 -8z m46 0 c0 -5 -7 -9 -15 -9 -8 0 -12 4
-9 9 3 4 9 8 15 8 5 0 9 -4 9 -8z m60 -23 c0 -5 -10 -8 -22 -8 -18 1 -19 2 -5
6 9 2 15 9 11 14 -3 5 -10 6 -16 3 -7 -4 -8 -2 -4 5 6 9 11 9 22 0 8 -6 14
-15 14 -20z m95 -9 c0 -16 -3 -30 -7 -30 -5 0 -8 14 -8 30 0 17 3 30 8 30 4 0
7 -13 7 -30z m53 -3 c2 -15 -1 -27 -6 -27 -5 0 -7 11 -4 25 2 15 0 25 -7 25
-6 0 -11 -5 -11 -12 0 -6 -3 -9 -6 -5 -9 9 6 29 19 24 7 -2 13 -16 15 -30z
m219 11 c-3 -8 -6 -5 -6 6 -1 11 2 17 5 13 3 -3 4 -12 1 -19z m42 -5 c0 -25
-1 -26 -9 -8 -12 27 -12 35 0 35 6 0 10 -12 9 -27z m78 -20 c-4 -3 -7 -1 -7 6
0 8 -7 11 -15 7 -10 -4 -15 1 -15 15 0 20 0 20 22 -1 12 -11 18 -23 15 -27z
m-470 15 c-3 -8 -6 -5 -6 6 -1 11 2 17 5 13 3 -3 4 -12 1 -19z m155 -3 c-4
-25 12 -35 21 -12 3 7 6 5 6 -5 1 -22 -27 -24 -35 -3 -4 8 -4 22 0 30 9 23 14
18 8 -10z m78 -6 c0 -23 -4 -30 -17 -27 -9 2 -18 9 -19 16 -1 7 0 8 3 2 2 -5
9 -10 14 -10 12 0 7 32 -6 42 -6 4 -2 8 8 8 12 0 17 -8 17 -31z m312 -8 c2
-22 0 -37 -4 -35 -8 5 -11 74 -4 74 2 0 6 -18 8 -39z m44 19 c9 0 14 -10 13
-32 -2 -31 -2 -31 -6 -5 -2 15 -8 27 -13 27 -5 0 -11 -12 -13 -27 -2 -17 -4
-11 -5 17 0 25 2 39 5 33 2 -7 11 -13 19 -13z m-981 -8 c-3 -3 -11 0 -18 7 -9
10 -8 11 6 5 10 -3 15 -9 12 -12z m913 -5 c2 -10 -3 -17 -11 -17 -9 0 -18 -6
-20 -12 -3 -7 -6 -1 -6 13 -1 14 2 29 6 33 11 10 28 1 31 -17z m-791 -9 c-3
-8 -6 -5 -6 6 -1 11 2 17 5 13 3 -3 4 -12 1 -19z m543 -11 c0 -5 -4 -5 -10 -2
-5 3 -10 14 -10 23 0 15 2 15 10 2 5 -8 10 -19 10 -23z m95 3 c-4 -12 -9 -19
-12 -17 -3 3 -2 15 2 27 4 12 9 19 12 17 3 -3 2 -15 -2 -27z m35 -7 c-11 -17
-11 -17 -6 0 3 10 6 24 7 30 0 9 2 9 5 0 3 -7 0 -20 -6 -30z m246 19 c1 -7 0
-8 -3 -2 -8 17 -23 11 -23 -9 0 -11 8 -22 18 -24 16 -4 16 -5 -1 -6 -20 -1
-32 22 -23 45 7 17 28 15 32 -4z m21 -29 c-3 -10 -5 -2 -5 17 0 19 2 27 5 18
2 -10 2 -26 0 -35z m433 22 c5 3 12 1 15 -5 4 -6 1 -9 -6 -8 -7 2 -16 -8 -20
-22 -5 -20 -7 -15 -7 20 0 25 2 37 5 27 2 -9 8 -15 13 -12z m-1135 -3 c-3 -3
-11 0 -18 7 -9 10 -8 11 6 5 10 -3 15 -9 12 -12z m780 -25 c-8 -21 -18 -37
-20 -37 -3 0 2 16 10 36 8 20 15 39 15 42 0 3 2 3 5 0 3 -3 -2 -21 -10 -41z
m60 13 c0 -16 -6 -26 -17 -28 -10 -2 -18 1 -18 7 0 6 7 8 15 5 11 -4 15 0 15
16 0 16 -4 20 -15 16 -8 -3 -15 -1 -15 5 0 6 8 9 18 7 11 -2 17 -12 17 -28z
m35 -20 c5 0 11 12 13 28 4 25 4 25 6 -5 1 -27 -3 -33 -19 -33 -16 0 -20 6
-19 33 2 30 2 30 6 5 2 -16 8 -28 13 -28z m67 3 c-3 -10 -5 -2 -5 17 0 19 2
27 5 18 2 -10 2 -26 0 -35z m-906 14 c-10 -9 -11 -8 -5 6 3 10 9 15 12 12 3
-3 0 -11 -7 -18z m969 8 c0 -8 -7 -15 -15 -15 -8 0 -15 -5 -15 -11 0 -6 7 -8
18 -4 13 5 14 3 5 -6 -6 -6 -16 -8 -22 -5 -12 8 -15 39 -4 49 12 13 33 7 33
-8z m67 9 c-3 -3 -12 -4 -19 -1 -8 3 -5 6 6 6 11 1 17 -2 13 -5z m130 -10 c-3
-3 -12 -4 -19 -1 -8 3 -5 6 6 6 11 1 17 -2 13 -5z m63 -28 c0 -35 -23 -66 -35
-46 -4 6 -1 9 7 8 8 -2 14 9 16 31 3 27 0 33 -12 28 -9 -4 -16 -2 -16 3 0 6 9
10 20 10 16 0 20 -7 20 -34z m17 -13 c-3 -10 -5 -2 -5 17 0 19 2 27 5 18 2
-10 2 -26 0 -35z m50 6 l1 -34 -7 35 c-7 34 -10 32 -24 -10 -3 -8 -6 -1 -6 17
-1 24 3 31 17 29 12 -2 17 -13 19 -37z m25 1 c-2 -16 -6 -30 -8 -30 -2 0 -4
14 -4 30 0 17 4 30 8 30 5 0 7 -13 4 -30z m75 24 c-3 -3 -12 -4 -19 -1 -8 3
-5 6 6 6 11 1 17 -2 13 -5z m37 -9 c-4 -8 -8 -15 -10 -15 -2 0 -4 7 -4 15 0 8
4 15 10 15 5 0 7 -7 4 -15z m-420 -7 c-5 -8 -2 -9 9 -5 10 3 17 2 17 -3 0 -12
-27 -13 -34 -1 -3 4 -3 11 1 15 10 10 15 7 7 -6z m169 5 c3 -5 -8 -8 -24 -8
-16 0 -29 3 -29 8 0 4 11 7 24 7 14 0 27 -3 29 -7z m303 -10 c-1 -10 4 -19 9
-20 6 -1 10 7 9 18 0 14 2 17 10 9 12 -12 -2 -41 -21 -47 -13 -5 -27 32 -18
47 9 14 12 12 11 -7z m58 2 c-4 -8 -8 -15 -10 -15 -2 0 -4 7 -4 15 0 8 4 15
10 15 5 0 7 -7 4 -15z m-433 -18 c-10 -9 -11 -8 -5 6 3 10 9 15 12 12 3 -3 0
-11 -7 -18z m236 -9 c-3 -8 -6 -5 -6 6 -1 11 2 17 5 13 3 -3 4 -12 1 -19z
m-180 6 c-3 -3 -12 -4 -19 -1 -8 3 -5 6 6 6 11 1 17 -2 13 -5z m230 -10 c-3
-3 -12 -4 -19 -1 -8 3 -5 6 6 6 11 1 17 -2 13 -5z m-2009 -23 c14 11 15 11 5
-1 -9 -9 -9 -19 -2 -34 9 -20 9 -20 -5 -3 -14 18 -14 18 -19 0 -3 -10 -5 0 -5
22 0 22 2 32 5 22 4 -15 7 -16 21 -6z m-66 -16 c-2 -14 0 -25 6 -25 6 0 13 11
16 25 6 23 6 23 4 -2 -2 -17 -9 -28 -18 -28 -9 0 -16 11 -18 28 -2 15 1 27 6
27 5 0 7 -11 4 -25z m95 -22 c-3 -10 -5 -2 -5 17 0 19 2 27 5 18 2 -10 2 -26
0 -35z m20 0 c-3 -10 -5 -2 -5 17 0 19 2 27 5 18 2 -10 2 -26 0 -35z m31 6
c-3 -20 -5 -19 -9 9 -3 20 -2 29 4 23 5 -5 7 -19 5 -32z m-181 -6 c-11 -12
-16 -12 -22 -2 -6 8 -4 10 4 5 8 -5 14 0 18 15 4 14 8 18 11 10 2 -7 -2 -20
-11 -28z m208 13 c0 -15 -4 -21 -9 -16 -5 5 -6 16 -3 24 9 22 12 20 12 -8z
m130 -7 c0 -15 -7 -25 -17 -27 -13 -3 -18 3 -18 21 0 13 3 27 7 31 13 12 28
-1 28 -25z m52 -6 c-3 -10 -5 -4 -5 12 0 17 2 24 5 18 2 -7 2 -21 0 -30z m61
9 c2 -7 -3 -12 -12 -12 -9 0 -16 -5 -16 -11 0 -6 7 -8 18 -4 13 5 14 3 5 -6
-14 -14 -33 -3 -33 20 0 31 28 41 38 13z m102 10 c0 -5 -7 -9 -15 -9 -8 0 -12
4 -9 9 3 4 9 8 15 8 5 0 9 -4 9 -8z m378 -20 c15 11 15 11 4 -3 -7 -9 -10 -25
-6 -35 4 -14 3 -16 -4 -5 -8 11 -10 11 -15 0 -3 -8 -5 6 -5 31 0 25 3 35 5 22
4 -20 7 -21 21 -10z m-318 -3 c0 -5 -10 -8 -22 -8 -18 1 -19 2 -5 6 9 2 14 9
11 15 -4 7 -2 8 4 4 7 -4 12 -11 12 -17z m116 3 c1 -7 0 -8 -3 -2 -8 18 -23
11 -23 -11 0 -15 5 -19 15 -15 8 3 15 1 15 -4 0 -6 -9 -10 -20 -10 -14 0 -20
7 -20 23 0 13 3 27 7 31 9 9 26 2 29 -12z m251 -44 c-2 -13 -4 -3 -4 22 0 25
2 35 4 23 2 -13 2 -33 0 -45z m20 0 c-2 -13 -4 -3 -4 22 0 25 2 35 4 23 2 -13
2 -33 0 -45z m-713 36 c3 -8 2 -12 -4 -9 -6 3 -10 10 -10 16 0 14 7 11 14 -7z
m213 -16 c-3 -7 -5 -2 -5 12 0 14 2 19 5 13 2 -7 2 -19 0 -25z m323 28 c0 -3
-4 -8 -10 -11 -5 -3 -10 -1 -10 4 0 6 5 11 10 11 6 0 10 -2 10 -4z m65 -6 c4
-6 -1 -7 -12 -4 -17 5 -17 5 1 -10 18 -15 14 -36 -7 -36 -8 0 -8 3 1 9 10 6
10 10 -2 21 -9 7 -13 16 -10 21 7 12 21 11 29 -1z m72 -37 c-3 -10 -5 -2 -5
17 0 19 2 27 5 18 2 -10 2 -26 0 -35z m-210 15 c-3 -8 -6 -5 -6 6 -1 11 2 17
5 13 3 -3 4 -12 1 -19z m284 13 c-11 -7 -10 -11 5 -19 15 -9 17 -13 7 -23 -11
-11 -15 -11 -25 0 -11 10 -9 11 7 5 19 -7 19 -7 2 13 -17 19 -14 33 7 33 6 0
5 -4 -3 -9z m86 -43 c-2 -13 -4 -5 -4 17 -1 22 1 32 4 23 2 -10 2 -28 0 -40z
m51 27 c-3 -3 -9 2 -12 12 -6 14 -5 15 5 6 7 -7 10 -15 7 -18z m-504 -18 c-3
-9 -11 -17 -17 -17 -8 0 -8 3 0 11 6 6 9 19 6 28 -4 12 -3 13 6 5 6 -6 9 -18
5 -27z m113 1 c-3 -7 -5 -2 -5 12 0 14 2 19 5 13 2 -7 2 -19 0 -25z m373 -18
c5 0 11 5 13 10 3 6 4 5 3 -2 -5 -24 -31 -14 -32 12 -1 22 0 22 3 3 2 -13 8
-23 13 -23z m150 0 c5 0 11 12 13 28 4 25 4 25 6 -5 1 -27 -3 -33 -19 -33 -16
0 -20 6 -19 33 2 30 2 30 6 5 2 -16 8 -28 13 -28z m153 38 c9 2 17 -1 17 -7 0
-6 -7 -8 -15 -5 -11 4 -15 0 -15 -16 0 -16 4 -20 15 -16 8 3 15 1 15 -5 0 -20
-35 -3 -38 19 -2 12 -10 22 -18 22 -8 0 -12 5 -9 10 4 6 12 7 18 3 7 -4 20 -6
30 -5z m-1223 -8 c0 -5 -8 -10 -17 -10 -15 0 -16 2 -3 10 19 12 20 12 20 0z
m365 -8 c-3 -3 -11 0 -18 7 -9 10 -8 11 6 5 10 -3 15 -9 12 -12z m592 -19 c-3
-10 -5 -4 -5 12 0 17 2 24 5 18 2 -7 2 -21 0 -30z m160 30 c-4 -3 1 -12 11
-19 14 -10 15 -15 5 -25 -11 -11 -15 -11 -25 0 -11 10 -10 11 5 6 9 -4 17 -3
17 3 0 5 -7 13 -16 16 -14 5 -11 26 3 26 4 0 3 -3 0 -7z m175 -27 c2 -19 0
-32 -4 -30 -8 5 -12 64 -4 64 2 0 6 -15 8 -34z m230 10 c3 -14 1 -31 -3 -38
-6 -8 -9 1 -9 25 0 42 6 48 12 13z m-205 -33 c-3 -10 -5 -2 -5 17 0 19 2 27 5
18 2 -10 2 -26 0 -35z m52 15 c-2 -31 -2 -31 -6 -5 -2 15 -8 27 -13 27 -5 0
-11 -12 -13 -27 -4 -26 -4 -26 -6 5 -1 26 3 32 19 32 16 0 20 -6 19 -32z m71
28 c0 -2 -7 -7 -16 -10 -8 -3 -12 -2 -9 4 6 10 25 14 25 6z m55 -6 c3 -6 -1
-7 -9 -4 -10 4 -16 1 -16 -7 0 -7 -3 -10 -6 -6 -7 7 4 27 16 27 5 0 12 -4 15
-10z m-518 -22 c-3 -8 -6 -5 -6 6 -1 11 2 17 5 13 3 -3 4 -12 1 -19z m629 -29
c-15 -34 -15 -34 -16 -6 0 15 5 27 10 27 6 0 10 8 11 18 0 9 3 12 5 6 2 -6 -2
-26 -10 -45z m60 15 c2 -29 2 -29 -3 -1 -2 15 -9 27 -14 27 -5 0 -10 -12 -10
-27 -1 -18 -3 -22 -6 -10 -6 25 4 50 20 45 6 -3 13 -18 13 -34z m-224 -6 c-8
-8 -9 -4 -5 13 4 13 8 18 11 10 2 -7 -1 -18 -6 -23z m250 3 c2 -17 1 -28 -4
-25 -8 5 -12 54 -4 54 2 0 6 -13 8 -29z m25 -18 c-3 -10 -5 -2 -5 17 0 19 2
27 5 18 2 -10 2 -26 0 -35z m88 17 c0 -16 -3 -30 -7 -30 -5 0 -8 14 -8 30 0
17 3 30 8 30 4 0 7 -13 7 -30z m22 -17 c-3 -10 -5 -2 -5 17 0 19 2 27 5 18 2
-10 2 -26 0 -35z m-440 15 c-3 -8 -6 -5 -6 6 -1 11 2 17 5 13 3 -3 4 -12 1
-19z m561 5 c2 -8 -5 -13 -20 -12 -20 1 -21 2 -3 7 l20 5 -20 8 c-19 8 -19 9
-1 6 11 -1 21 -8 24 -14z m-474 -9 c3 -8 2 -12 -4 -9 -6 3 -10 10 -10 16 0 14
7 11 14 -7z m263 -16 c-3 -8 -6 -5 -6 6 -1 11 2 17 5 13 3 -3 4 -12 1 -19z
m144 3 c7 11 9 10 9 -3 0 -10 -7 -18 -15 -18 -8 0 -15 2 -15 4 0 2 -3 13 -6
23 -5 17 -5 17 6 -1 10 -15 14 -16 21 -5z m59 -17 c0 -2 -7 -4 -15 -4 -8 0
-15 4 -15 10 0 5 7 7 15 4 8 -4 15 -8 15 -10z m-1265 -94 c-4 -12 -12 -19 -20
-16 -8 3 -16 -3 -18 -12 -3 -12 -5 -10 -6 6 -1 17 4 22 17 20 12 -2 17 3 16
20 0 14 3 19 9 13 5 -5 6 -19 2 -31z m50 10 c0 -27 -22 -39 -31 -16 -8 22 3
49 19 43 6 -2 12 -14 12 -27z m30 0 c0 -16 -3 -30 -7 -30 -5 0 -8 14 -8 30 0
17 3 30 8 30 4 0 7 -13 7 -30z m53 7 c2 -10 -3 -17 -11 -17 -9 0 -18 -6 -20
-12 -3 -7 -6 -1 -6 13 -1 14 2 29 6 33 11 10 28 1 31 -17z m24 -17 c-2 -16 -6
-30 -8 -30 -2 0 -4 14 -4 30 0 17 4 30 8 30 5 0 7 -13 4 -30z m25 -17 c-3 -10
-5 -2 -5 17 0 19 2 27 5 18 2 -10 2 -26 0 -35z m50 0 c-3 -10 -5 -2 -5 17 0
19 2 27 5 18 2 -10 2 -26 0 -35z m51 14 c3 -22 -1 -27 -17 -27 -12 0 -21 7
-21 15 0 8 5 15 11 15 5 0 7 -4 4 -10 -3 -5 -1 -10 4 -10 14 0 14 37 1 43 -6
3 -5 4 2 3 7 -1 14 -15 16 -29z m19 -14 c-3 -10 -5 -2 -5 17 0 19 2 27 5 18 2
-10 2 -26 0 -35z m-93 1 c3 -8 2 -12 -4 -9 -6 3 -10 10 -10 16 0 14 7 11 14
-7z m-328 -346 c-8 -6 -7 -11 4 -18 13 -8 12 -10 -2 -10 -13 0 -18 8 -18 30 0
26 2 29 14 18 10 -9 11 -15 2 -20z m111 -15 c-3 -10 -5 -2 -5 17 0 19 2 27 5
18 2 -10 2 -26 0 -35z m-66 14 c-10 -9 -11 -8 -5 6 3 10 9 15 12 12 3 -3 0
-11 -7 -18z m226 16 c-14 -4 -18 -12 -14 -29 2 -13 0 -21 -4 -18 -11 6 -12 38
-2 47 3 4 13 6 22 6 12 -1 11 -3 -2 -6z m-200 -35 c-3 -7 -5 -2 -5 12 0 14 2
19 5 13 2 -7 2 -19 0 -25z m78 7 c0 -10 -6 -19 -13 -21 -7 -1 -8 0 -2 3 5 2
10 11 10 18 0 7 -5 16 -10 18 -6 3 -5 4 2 3 7 -2 13 -11 13 -21z m56 17 c-11
-4 -11 -6 0 -13 12 -7 11 -9 -1 -9 -13 0 -13 -1 0 -10 11 -7 12 -10 2 -10 -8
0 -16 9 -19 20 -3 11 -9 17 -14 14 -5 -3 -9 -1 -9 4 0 5 12 9 28 9 15 0 21 -2
13 -5z m112 -9 c-7 -2 -13 -11 -13 -19 0 -9 5 -12 12 -8 7 5 8 3 3 -5 -5 -9
-11 -9 -17 -3 -13 13 -3 42 14 41 10 0 10 -2 1 -6z m29 -18 c3 -13 1 -22 -3
-19 -9 5 -13 44 -5 44 2 0 6 -11 8 -25z m40 0 c-2 -14 -6 -25 -8 -25 -2 0 -4
11 -4 25 0 14 4 25 9 25 4 0 6 -11 3 -25z m36 13 c-2 -7 4 -12 13 -10 9 1 16
-4 16 -10 0 -7 -12 -14 -26 -14 -14 -1 -20 1 -12 3 10 4 11 7 1 13 -7 4 -9 13
-6 19 9 15 17 14 14 -1z m79 -13 c0 -8 -4 -12 -9 -9 -5 3 -6 10 -3 15 9 13 12
11 12 -6z m-1127 -1870 c0 -63 1 -65 25 -65 16 0 25 -6 25 -15 0 -11 -11 -15
-42 -15 l-43 0 3 80 c3 61 7 80 18 80 11 0 14 -15 14 -65z m690 19 c0 -16 -16
-19 -25 -4 -8 13 4 32 16 25 5 -4 9 -13 9 -21z m-452 -16 c7 -7 12 -33 12 -59
l0 -48 -42 2 c-32 2 -44 6 -46 20 -5 23 15 47 39 47 11 0 19 5 19 11 0 6 -9 9
-20 6 -22 -6 -35 7 -25 23 9 14 48 13 63 -2z m180 -11 c23 -18 13 -107 -13
-107 -9 0 -12 11 -8 39 3 24 1 41 -7 46 -16 10 -21 2 -27 -44 -4 -27 -11 -41
-21 -41 -12 0 -13 9 -8 46 3 26 6 53 6 60 0 15 59 16 78 1z m536 -13 c4 -15 2
-32 -3 -37 -14 -14 -14 -57 -1 -57 6 0 10 -7 10 -16 0 -10 -7 -14 -22 -12 -20
3 -24 11 -30 58 -4 32 -3 56 3 58 5 2 9 10 9 18 0 25 28 15 34 -12z m204 -26
c7 -7 12 -22 12 -35 0 -19 -5 -23 -30 -23 -16 0 -30 -4 -30 -9 0 -15 18 -23
25 -12 3 6 12 8 21 4 21 -8 -2 -33 -30 -33 -32 0 -46 19 -46 60 0 41 14 60 45
60 12 0 26 -5 33 -12z"/>
<path d="M7044 6635 c-8 -20 3 -48 16 -40 13 8 13 55 0 55 -6 0 -13 -7 -16
-15z"/>
<path d="M6800 6625 c0 -8 5 -15 10 -15 6 0 10 7 10 15 0 8 -4 15 -10 15 -5 0
-10 -7 -10 -15z"/>
<path d="M6922 6620 c0 -14 2 -19 5 -12 2 6 2 18 0 25 -3 6 -5 1 -5 -13z"/>
<path d="M7640 6580 c0 -11 5 -20 10 -20 6 0 10 9 10 20 0 11 -4 20 -10 20 -5
0 -10 -9 -10 -20z"/>
<path d="M5743 5763 c-28 -5 -47 -29 -39 -48 6 -16 33 -20 53 -7 14 9 29 63
17 61 -5 -1 -19 -4 -31 -6z"/>
<path d="M6256 5814 c-21 -20 -20 -34 2 -34 9 0 27 -3 40 -6 17 -5 22 -2 22
13 0 39 -37 55 -64 27z"/>
<path d="M7042 5778 c-21 -21 -13 -37 23 -44 45 -8 52 -1 31 31 -18 27 -35 32
-54 13z"/>
<path d="M7320 5665 c-17 -21 -5 -45 24 -45 23 0 36 16 36 46 0 19 -44 18 -60
-1z"/>
<path d="M7899 5719 c-30 -57 -2 -148 39 -123 23 15 38 77 26 112 -12 35 -48
41 -65 11z"/>
<path d="M6690 5350 c0 -11 5 -20 10 -20 6 0 10 9 10 20 0 11 -4 20 -10 20 -5
0 -10 -9 -10 -20z"/>
<path d="M7930 5270 c0 -5 5 -10 10 -10 6 0 10 5 10 10 0 6 -4 10 -10 10 -5 0
-10 -4 -10 -10z"/>
<path d="M7410 5150 c0 -5 5 -10 10 -10 6 0 10 5 10 10 0 6 -4 10 -10 10 -5 0
-10 -4 -10 -10z"/>
<path d="M6520 5010 c0 -11 5 -20 10 -20 6 0 10 9 10 20 0 11 -4 20 -10 20 -5
0 -10 -9 -10 -20z"/>
<path d="M7140 4800 c0 -11 5 -20 10 -20 6 0 10 9 10 20 0 11 -4 20 -10 20 -5
0 -10 -9 -10 -20z"/>
<path d="M7220 4810 c0 -5 5 -10 10 -10 6 0 10 5 10 10 0 6 -4 10 -10 10 -5 0
-10 -4 -10 -10z"/>
<path d="M6565 2469 c-4 -6 -5 -13 -2 -16 7 -7 27 6 27 18 0 12 -17 12 -25 -2z"/>
<path d="M7486 2473 c-11 -11 -6 -23 9 -23 8 0 15 4 15 9 0 13 -16 22 -24 14z"/>
<path d="M6465 2520 c-3 -5 1 -10 9 -10 9 0 16 5 16 10 0 6 -4 10 -9 10 -6 0
-13 -4 -16 -10z"/>
<path d="M7620 2485 c0 -8 7 -15 15 -15 8 0 15 7 15 15 0 8 -7 15 -15 15 -8 0
-15 -7 -15 -15z"/>
<path d="M7730 2450 c0 -5 7 -10 15 -10 8 0 15 5 15 10 0 6 -7 10 -15 10 -8 0
-15 -4 -15 -10z"/>
<path d="M7620 2420 c0 -23 25 -27 33 -6 7 16 -1 26 -20 26 -7 0 -13 -9 -13
-20z"/>
</g>
</svg>
